<svg height="512" viewBox="0 0 60 52" width="512" xmlns="http://www.w3.org/2000/svg"><g id="Page-1" fill="none" fill-rule="evenodd"><g id="022---Cash" fill-rule="nonzero" transform="translate(0 -1)"><path id="Shape" d="m2.467 37.179 4.743 14.141c.17570932.5203974.73825651.801671 1.26.63l40.338-13.521 8.021-23.707-4.039-12.042c-.1757093-.52039737-.7382565-.80167096-1.26-.63l-33.744 11.31z" fill="#a4c2f7"/><path id="Shape" d="m17 13h41c.5522847 0 1 .4477153 1 1v26c0 .5522847-.4477153 1-1 1h-56c-.55228475 0-1-.4477153-1-1v-26c0-.5522847.44771525-1 1-1h10" fill="#e8edfc"/><path id="Shape" d="m58 13h-3c.5522847 0 1 .4477153 1 1v26c0 .5522847-.4477153 1-1 1h3c.5522847 0 1-.4477153 1-1v-26c0-.5522847-.4477153-1-1-1z" fill="#cad9fc"/><ellipse id="Oval" cx="30" cy="27" fill="#cad9fc" rx="13" ry="14"/><path id="Shape" d="m2 41h1.749l3.461 10.32c.17570932.5203974.73825651.801671 1.26.63l1.762-.59c0-.015-.017-.025-.022-.04l-3.461-10.32h-1.749c-.55228475 0-1-.4477153-1-1v-26c0-.5522847.44771525-1 1-1h-3c-.55228475 0-1 .4477153-1 1v26c0 .5522847.44771525 1 1 1z" fill="#fff"/><path id="Rectangle-path" d="m0 32h2v8h-2z" fill="#fff"/><g fill="#428dff"><path id="Shape" d="m1 33c.55228475 0 1-.4477153 1-1v-18h10c.5522847 0 1-.4477153 1-1s-.4477153-1-1-1h-10c-1.1045695 0-2 .8954305-2 2v18c0 .5522847.44771525 1 1 1z"/><circle id="Oval" cx="1" cy="36" r="1"/><path id="Shape" d="m58 12h-41c-.5522847 0-1 .4477153-1 1s.4477153 1 1 1h6.045c-4.4379108 2.8239389-7.1020984 7.7401119-7.045 13-.0570984 5.2598881 2.6070892 10.1760611 7.045 13h-21.045c0-.5522847-.44771525-1-1-1s-1 .4477153-1 1c0 1.1045695.8954305 2 2 2h56c1.1045695 0 2-.8954305 2-2v-26c0-1.1045695-.8954305-2-2-2zm-40 15c0-7.168 5.383-13 12-13s12 5.832 12 13-5.383 13-12 13-12-5.832-12-13zm40 13h-21.045c4.4379108-2.8239389 7.1020984-7.7401119 7.045-13 .0570984-5.2598881-2.6070892-10.1760611-7.045-13h21.045z"/><path id="Shape" d="m52.736 1.21c-.4734207-.23692093-1.0214626-.27647776-1.524-.11l-21.54 7.219c-.5246705.17562655-.8076266.74332949-.632 1.268.1756266.5246705.7433295.8076266 1.268.632l21.534-7.219 2.21 6.589c.1134318.33940232.3993161.5925078.7499631.6639742.3506469.0714663.7127849-.049564.95-.31750005.2372151-.267936.3134687-.64207184.2000369-.98147415l-2.211-6.585c-.1647423-.50619768-.5272331-.92423433-1.005-1.159z"/><path id="Shape" d="m29.692 43.782-21.534 7.218-2.21-6.589c-.17535041-.5246705-.74282949-.8078504-1.2675-.6325s-.80785041.7428295-.6325 1.2675l2.207 6.583c.16356944.5052833.52413035.9231734 1 1.159.27685751.1377021.58178849.2095713.891.21.21495723.0003078.42860579-.0334439.633-.1l21.54-7.219c.5246705-.1756266.8076266-.7433295.632-1.268s-.7433295-.8076266-1.268-.632z"/><path id="Shape" d="m33 23.5c0 .5522847.4477153 1 1 1s1-.4477153 1-1c-.0965423-2.2415987-1.7783513-4.0953727-4-4.409v-.091c0-.5522847-.4477153-1-1-1s-1 .4477153-1 1v.091c-2.2216487.3136273-3.9034577 2.1674013-4 4.409.0965423 2.2415987 1.7783513 4.0953727 4 4.409v4.937c-1.1128409-.2524624-1.9267959-1.2072317-2-2.346 0-.5522847-.4477153-1-1-1s-1 .4477153-1 1c.0965423 2.2415987 1.7783513 4.0953727 4 4.409v.091c0 .5522847.4477153 1 1 1s1-.4477153 1-1v-.091c2.2216487-.3136273 3.9034577-2.1674013 4-4.409-.0965423-2.2415987-1.7783513-4.0953727-4-4.409v-4.937c1.1128409.2524624 1.9267959 1.2072317 2 2.346zm-6 0c.0732041-1.1387683.8871591-2.0935376 2-2.346v4.692c-1.1128409-.2524624-1.9267959-1.2072317-2-2.346zm6 7c-.0732041 1.1387683-.8871591 2.0935376-2 2.346v-4.692c1.1128409.2524624 1.9267959 1.2072317 2 2.346z"/><path id="Shape" d="m51 38h4c.5522847 0 1-.4477153 1-1v-4c0-.5522847-.4477153-1-1-1s-1 .4477153-1 1v3h-3c-.5522847 0-1 .4477153-1 1s.4477153 1 1 1z"/><path id="Shape" d="m5 32c-.55228475 0-1 .4477153-1 1v4c0 .5522847.44771525 1 1 1h4c.55228475 0 1-.4477153 1-1s-.44771525-1-1-1h-3v-3c0-.5522847-.44771525-1-1-1z"/><path id="Shape" d="m9 16h-4c-.55228475 0-1 .4477153-1 1v4c0 .5522847.44771525 1 1 1s1-.4477153 1-1v-3h3c.55228475 0 1-.4477153 1-1s-.44771525-1-1-1z"/><path id="Shape" d="m51 18h3v3c0 .5522847.4477153 1 1 1s1-.4477153 1-1v-4c0-.5522847-.4477153-1-1-1h-4c-.5522847 0-1 .4477153-1 1s.4477153 1 1 1z"/></g></g></g></svg>