<svg height="511pt" viewBox="0 -8 511.99944 511" width="511pt" xmlns="http://www.w3.org/2000/svg"><path d="m469.332031 273.53125c0 56.578125-22.476562 110.839844-62.484375 150.847656-40.007812 40.007813-94.269531 62.484375-150.851562 62.484375-4.265625 0-8.53125-.085937-12.796875-.425781-71.53125-4.285156-136.132813-44.203125-171.960938-106.257812-35.832031-62.058594-38.101562-137.964844-6.046875-202.050782l11.949219-20.738281c10.753906-16.671875 23.828125-31.726563 38.824219-44.714844l.085937-.085937 101.972657-48.980469c8.328124-1.476563 16.734374-2.472656 25.175781-2.984375 4.179687-.257812 8.53125-.429688 12.796875-.429688 12.734375.003907 25.445312 1.148438 37.976562 3.414063l101.972656 48.980469.085938.085937c14.996094 12.988281 28.070312 28.042969 38.824219 44.714844l11.949219 20.738281c14.855468 29.601563 22.574218 62.277344 22.527343 95.402344zm0 0" fill="#a4c2f7"/><path d="m443.730469 273.53125c.035156 112.855469-87.878907 206.1875-200.53125 212.90625-71.53125-4.285156-136.132813-44.203125-171.960938-106.257812-35.832031-62.058594-38.101562-137.964844-6.046875-202.050782l11.949219-20.738281c10.753906-16.671875 23.828125-31.726563 38.824219-44.714844l.085937-.085937 101.972657-48.980469c8.328124-1.476563 16.734374-2.472656 25.175781-2.984375 8.441406.511719 16.84375 1.507812 25.171875 2.984375l101.972656 48.980469.085938.085937c15 12.988281 28.070312 28.042969 38.828124 44.714844l11.945313 20.738281c14.859375 29.601563 22.574219 62.277344 22.527344 95.402344zm0 0" fill="#e3e7f2"/><path d="m409.597656 270.96875c.222656 16.5-.984375 32.988281-3.609375 49.28125-.152343 1.09375-.308593 2.191406-.539062 3.285156-.660157 3.808594-1.554688 7.570313-2.6875 11.265625v.074219c-11.398438 40.519531-41.214844 73.300781-80.476563 88.472656-42.644531 16.476563-89.894531 16.476563-132.539062 0-39.289063-15.171875-69.125-47.972656-80.523438-88.515625v-.074219c-1.128906-3.695312-2.027344-7.457031-2.6875-11.265624-.230468-1.09375-.382812-2.191407-.535156-3.285157-2.621094-16.277343-3.824219-32.75-3.601562-49.238281.078124-5.632812.230468-11.1875.613281-16.816406.382812-2.050782.542969-4.136719.476562-6.222656 0 0 68.730469 60.226562 150.359375 60.226562h4.265625c81.628907 0 150.359375-60.226562 150.359375-60.226562-.070312 2.070312.085938 4.140624.460938 6.179687.417968 5.628906.570312 11.1875.664062 16.859375zm0 0" fill="#a4c2f7"/><path d="m168.019531 61.136719c9.894531-4.285157 20.265625-7.378907 30.890625-9.21875 7.957032-1.394531 15.789063 3.039062 18.6875 10.582031.171875.339844.257813.769531.425782 1.109375 7.253906 18.6875 16.214843 50.089844-5.800782 50.089844-30.011718 0-40.824218-9.71875-96.726562 26.796875-1.40625.921875-3.21875.933594-4.636719.027344-1.417969-.902344-2.171875-2.554688-1.925781-4.21875 1.375-8.132813 3.734375-16.066407 7.03125-23.628907l.085937-.085937c7.984375-18.824219 21.804688-34.589844 39.425781-44.96875" fill="#e3e7f2"/><path d="m403.027344 136.3125c.246094 1.664062-.511719 3.316406-1.929688 4.21875-1.421875.90625-3.238281.890625-4.640625-.035156-7.679687-5.035156-14.59375-9.21875-20.738281-12.628906-31.914062-17.75-45.308594-15.789063-63.742188-14.59375-3.839843.171874-7.765624.425781-12.203124.425781-1.925782.039062-3.839844-.308594-5.632813-1.023438-14.589844-5.035156-6.738281-32.253906-.167969-49.066406.167969-.339844.253906-.769531.425782-1.109375 1.191406-3.066406 3.273437-5.710938 5.972656-7.59375 3.636718-2.726562 8.246094-3.808594 12.714844-2.988281 10.625 1.839843 20.996093 4.933593 30.890624 9.21875l12.542969 6.484375c17.621094 10.378906 31.441407 26.144531 39.425781 44.96875l.085938.085937c3.308594 7.558594 5.65625 15.5 6.996094 23.636719zm0 0" fill="#a4c2f7"/><path d="m44.953125 28.707031c7.539063 11.484375 13.527344 23.914063 17.800781 36.96875 1.1875 3.136719.429688 6.683594-1.945312 9.058594-2.371094 2.375-5.917969 3.136719-9.054688 1.949219-13.058594-4.277344-25.492187-10.265625-36.976562-17.808594-8.265625-8.34375-8.234375-21.800781.070312-30.105469 8.308594-8.304687 21.761719-8.332031 30.105469-.0625zm0 0" fill="#e3e7f2"/><path d="m48.816406 137.851562c12.15625 6.390626 23.410156 14.367188 33.46875 23.722657 2.554688 2.164062 3.605469 5.628906 2.6875 8.847656-.917968 3.222656-3.640625 5.609375-6.953125 6.101563-13.492187 2.578124-27.265625 3.355468-40.960937 2.3125-10.828125-3.636719-16.871094-15.15625-13.707032-26.128907 3.160157-10.976562 14.40625-17.511719 25.507813-14.832031zm0 0" fill="#e3e7f2"/><path d="m158.835938 18.980469c4.832031 12.863281 7.933593 26.308593 9.21875 39.988281.464843 3.320312-1.054688 6.609375-3.890626 8.402344-2.835937 1.792968-6.460937 1.753906-9.261718-.09375-11.796875-7.046875-22.605469-15.628906-32.144532-25.519532-6.226562-9.960937-3.230468-23.082031 6.699219-29.351562 9.933594-6.269531 23.066407-3.332031 29.378907 6.574219zm0 0" fill="#e3e7f2"/><path d="m497.234375 58.917969c-11.488281 7.5-23.910156 13.46875-36.949219 17.746093-2.257812.890626-4.789062.761719-6.945312-.351562-2.15625-1.109375-3.730469-3.09375-4.316406-5.449219-.511719-1.714843-.421876-3.550781.253906-5.207031 4.242187-13.050781 10.210937-25.476562 17.75-36.949219.726562-.703125 1.496094-1.355469 2.304687-1.960937 8.953125-6.851563 21.691407-5.550782 29.078125 2.964844 7.386719 8.515624 6.871094 21.308593-1.175781 29.207031zm0 0" fill="#a4c2f7"/><path d="m474.964844 178.808594c-8.25 1.078125-16.609375.992187-24.832032-.253906-5.464843-.597657-11.007812-1.28125-16.128906-2.050782-3.335937-.453125-6.085937-2.835937-7.007812-6.070312-.925782-3.238282.148437-6.714844 2.742187-8.859375 8.417969-7.3125 17.28125-14.097657 26.535157-20.3125 2.148437-1.429688 4.472656-2.578125 6.914062-3.410157 7.445312-2.527343 15.675781-.753906 21.421875 4.613282 5.742187 5.367187 8.070313 13.460937 6.050781 21.058594-2.015625 7.597656-8.046875 13.472656-15.695312 15.285156zm0 0" fill="#a4c2f7"/><path d="m471.636719 58.917969c-6.953125 5.003906-14.5625 9.023437-22.613281 11.945312-.511719-1.714843-.421876-3.550781.253906-5.207031 4.242187-13.050781 10.210937-25.476562 17.75-36.949219.726562-.703125 1.496094-1.355469 2.304687-1.960937.808594.605468 1.578125 1.257812 2.304688 1.960937 8.277343 8.371094 8.277343 21.839844 0 30.210938zm0 0" fill="#e3e7f2"/><path d="m450.132812 178.554688c-5.464843-.597657-11.007812-1.28125-16.128906-2.050782-3.335937-.453125-6.085937-2.835937-7.007812-6.070312-.925782-3.238282.148437-6.714844 2.742187-8.859375 8.417969-7.3125 17.28125-14.097657 26.535157-20.3125 3.730468 2.773437 6.433593 6.703125 7.683593 11.179687 3.238281 11.011719-2.894531 22.601563-13.824219 26.113282zm0 0" fill="#e3e7f2"/><path d="m353.160156 18.980469c-4.832031 12.863281-7.933594 26.308593-9.21875 39.988281-.464844 3.320312 1.054688 6.609375 3.890625 8.402344 2.835938 1.792968 6.460938 1.753906 9.261719-.09375 11.796875-7.046875 22.605469-15.628906 32.144531-25.519532 6.226563-9.960937 3.230469-23.082031-6.699219-29.351562-9.933593-6.269531-23.066406-3.332031-29.378906 6.574219zm0 0" fill="#e3e7f2"/><path d="m366.929688 276.347656v31.316406c0 23.550782-49.664063 42.664063-110.933594 42.664063-4.351563 0-8.617188-.082031-12.796875-.339844-55.210938-2.390625-98.132813-20.480469-98.132813-42.324219v-31.316406c29.953125 17.679688 63.480469 28.441406 98.132813 31.484375 3.496093.257813 7.082031.34375 10.664062.34375h4.269531c28.75-.527343 57.078126-7.007812 83.199219-19.03125 8.757813-3.800781 17.304688-8.074219 25.597657-12.796875zm0 0" fill="#e3e7f2"/><path d="m375.71875 127.867188c-31.914062-17.75-45.308594-15.789063-63.742188-14.59375-5.910156-.789063-11.882812-.988282-17.835937-.597657-14.589844-5.035156-6.738281-32.253906-.167969-49.066406.167969-.339844.253906-.769531.425782-1.109375 1.191406-3.066406 3.273437-5.710938 5.972656-7.59375 6.15625 1.597656 12.179687 3.679688 18.003906 6.230469l12.546875 6.484375c17.617187 10.378906 31.4375 26.144531 39.421875 44.96875l.085938.085937c2.148437 4.921875 3.917968 10 5.289062 15.191407zm0 0" fill="#e3e7f2"/><path d="m341.332031 289.144531v18.519531c0 21.84375-42.921875 39.933594-98.132812 42.324219-55.210938-2.390625-98.132813-20.480469-98.132813-42.324219v-34.132812c23.976563 10.578125 52.648438 34.644531 83.199219 34.644531h4.265625c3.582031 0 7.167969-.085937 10.667969-.34375 3.496093.257813 7.082031.34375 10.664062.34375h4.269531c28.75-.527343 57.078126-7.007812 83.199219-19.03125zm0 0" fill="#e3e7f2"/><path d="m211.625 54.871094c-3.65625-2.683594-8.25-3.75-12.714844-2.953125-2.109375.386719-4.105468.855469-6.117187 1.28125.304687 1.972656.597656 3.90625.851562 5.769531.09375.714844.09375 1.441406 0 2.15625 5.828125-2.527344 11.839844-4.617188 17.980469-6.253906zm0 0" fill="#fff"/><path d="m141.566406 112.675781.085938-.085937c7.984375-18.824219 21.804687-34.589844 39.421875-44.96875h.078125c-.222656-.089844-.4375-.1875-.648438-.300782-3.277344-2.183593-6.828125-4.582031-10.242187-7.039062-.707031.308594-1.472657.582031-2.175781.855469.09375-.71875.09375-1.445313 0-2.160157v-.308593c-7.304688-4.683594-13.910157-10.371094-19.625-16.902344-5.929688-9.347656-3.695313-21.683594 5.136718-28.359375-8.214844-6.113281-19.621094-5.527344-27.167968 1.402344-7.542969 6.925781-9.101563 18.238281-3.707032 26.949218 9.550782 9.894532 20.371094 18.476563 32.179688 25.519532.210937.113281.429687.214844.648437.300781h-.074219c-17.621093 10.378906-31.441406 26.144531-39.425781 44.96875l-.085937.085937c-11 9.574219-20.980469 20.261719-29.78125 31.890626 5.222656 3.660156 11.09375 8.292968 16.617187 12.800781 10.738281-16.644531 23.792969-31.675781 38.765625-44.648438zm0 0" fill="#fff"/><path d="m243.199219 486.4375c4.265625.339844 8.53125.425781 12.796875.425781 4.269531 0 8.628906-.171875 12.894531-.425781h-.09375c-71.527344-4.28125-136.125-44.191406-171.953125-106.246094-35.832031-62.050781-38.109375-137.949218-6.058594-202.039062-8.644531 1.257812-17.394531 1.625-26.113281 1.09375-31.617187 64.070312-29.042969 139.714844 6.855469 201.488281 35.898437 61.773437 100.351562 101.460937 171.671875 105.710937zm0 0" fill="#fff"/><path d="m55.753906 141.339844c-2.160156-1.449219-4.488281-2.625-6.9375-3.507813-11.152344-2.8125-22.527344 3.730469-25.710937 14.78125-3.1875 11.054688 2.96875 22.644531 13.910156 26.195313 8.238281 1.066406 16.582031.957031 24.789063-.324219-7.542969-2.449219-13.085938-8.910156-14.359376-16.738281-1.273437-7.832032 1.933594-15.714844 8.308594-20.433594zm0 0" fill="#fff"/><path d="m51.753906 76.683594c2.253906.851562 4.761719.714844 6.90625-.382813 2.148438-1.097656 3.730469-3.050781 4.355469-5.378906-8.074219-2.929687-15.695313-6.984375-22.636719-12.046875-8.328125-8.332031-8.328125-21.835938 0-30.167969.714844-.675781 1.480469-1.300781 2.285156-1.867187-8.921874-6.789063-21.578124-5.492188-28.9375 2.964844-7.359374 8.453124-6.902343 21.167968 1.050782 29.070312 11.484375 7.542969 23.917968 13.53125 36.976562 17.808594zm0 0" fill="#fff"/><path d="m51.199219 273.53125c.171875 35.675781 9.539062 70.703125 27.195312 101.707031l6.9375 11.484375c2.441407 3.765625 5.316407 7.222656 7.933594 10.855469 5.433594 7.132813 11.28125 13.933594 17.511719 20.378906l9.925781 9.078125 4.964844 4.523438 5.394531 4.027344 10.785156 8.023437 11.496094 6.96875c3.78125 2.410156 7.738281 4.527344 11.84375 6.332031 4.058594 1.894532 8.027344 4.003906 12.148438 5.734375 25.019531 10.066407 51.695312 15.386719 78.660156 15.683594v17.066406c-39.046875-.148437-77.378906-10.507812-111.1875-30.050781l-12.441406-7.570312-11.699219-8.679688-5.828125-4.367188-5.394532-4.890624-10.734374-9.839844c-6.757813-6.96875-13.09375-14.339844-18.96875-22.066406-2.859376-3.925782-5.972657-7.679688-8.585938-11.757813l-7.566406-12.441406c-19.132813-33.589844-29.28125-71.546875-29.457032-110.199219zm0 0" fill="#fff"/><g fill="#428dff"><path d="m162.132812 205.261719c3.265626.003906 6.246094-1.859375 7.679688-4.792969.65625-1.339844 16.476562-32.625 57.359375-15.839844 4.363281 1.792969 9.351563-.292968 11.140625-4.65625 1.789062-4.359375-.292969-9.347656-4.65625-11.136718-44.449219-18.230469-71.226562 7.832031-79.171875 24.15625-1.285156 2.640624-1.125 5.757812.429687 8.25 1.554688 2.492187 4.28125 4.011718 7.21875 4.019531zm0 0"/><path d="m284.839844 184.628906c39.75-16.324218 55.6875 12.535156 57.378906 15.882813 2.171875 4.042969 7.15625 5.640625 11.277344 3.617187 4.121094-2.023437 5.902344-6.945312 4.03125-11.136718-7.945313-16.324219-34.6875-42.375-79.171875-24.15625-2.820313 1.15625-4.8125 3.734374-5.21875 6.753906-.40625 3.023437.828125 6.035156 3.242187 7.898437 2.414063 1.863281 5.640625 2.300781 8.460938 1.140625zm0 0"/><path d="m109.027344 241.445312c-2.703125-2.304687-6.554688-2.691406-9.664063-.972656s-4.828125 5.1875-4.3125 8.703125c-.066406.714844-.203125 1.59375-.296875 2.296875-.15625 1.089844-.242187 1.996094-.25 2.089844-.390625 5.777344-.546875 11.476562-.621094 17.277344-.234374 16.917968 1.003907 33.824218 3.695313 50.527344.167969 1.28125.355469 2.558593.578125 3.644531.691406 3.960937 1.617188 7.878906 2.773438 11.734375 0 .101562.050781.210937.085937.324218 11.976563 43.160157 43.703125 78.089844 85.519531 94.148438 22.109375 8.742188 45.691406 13.148438 69.460938 12.976562 23.769531.171876 47.34375-4.230468 69.445312-12.96875 41.824219-16.054687 73.558594-50.988281 85.539063-94.15625 0-.105468.058593-.214843.085937-.316406 1.132813-3.792968 2.042969-7.648437 2.730469-11.546875.265625-1.28125.453125-2.558593.597656-3.601562 2.707031-16.78125 3.960938-33.765625 3.738281-50.765625-.078124-5.792969-.230468-11.5-.609374-16.707032-.042969-.882812-.128907-1.761718-.261719-2.636718-.09375-.699219-.230469-1.578125-.300781-2.292969.515624-3.519531-1.203126-6.984375-4.3125-8.703125-3.109376-1.722656-6.960938-1.335938-9.664063.96875l-.101563.085938c-1.503906 1.296874-67.867187 58.09375-144.71875 58.09375h-4.265624c-76.851563 0-143.214844-56.796876-144.714844-58.09375zm149.121094 75.246094c34.980468-.800781 69.296874-9.707031 100.25-26.019531v16.992187c0 14.25-38.957032 34.132813-102.402344 34.132813-63.445313 0-102.398438-19.882813-102.398438-34.132813v-16.992187c30.953125 16.3125 65.269532 25.21875 100.25 26.019531zm-147.070313-51.960937c6.441406 4.710937 15.101563 10.582031 25.453125 16.660156v26.273437c0 33.277344 61.550781 51.199219 119.464844 51.199219 57.917968 0 119.46875-17.921875 119.46875-51.199219v-26.273437c10.351562-6.078125 19.011718-11.949219 25.453125-16.660156.0625 2.082031.105469 4.175781.128906 6.28125.214844 16.082031-.960937 32.15625-3.523437 48.035156-.128907.902344-.257813 1.816406-.488282 2.925781-.589844 3.460938-1.402344 6.882813-2.429687 10.242188-.089844.277344-.15625.5625-.207031.851562-10.703126 37.796875-38.617188 68.320313-75.304688 82.355469-20.085938 7.914063-41.507812 11.886719-63.097656 11.707031-21.605469.171875-43.042969-3.8125-63.144532-11.742187-36.664062-14.03125-64.5625-44.535157-75.273437-82.304688-.058594-.285156-.132813-.570312-.222656-.851562-1.042969-3.421875-1.867188-6.902344-2.472657-10.425781-.1875-.914063-.316406-1.828126-.480468-2.972657-2.539063-15.796875-3.707032-31.785156-3.488282-47.785156.050782-2.121094.105469-4.226563.164063-6.316406zm0 0"/><path d="m61.683594 337.9375c-.84375-2.003906-2.304688-3.691406-4.171875-4.8125l-1.46875-.597656c-.539063-.167969-1.097657-.273438-1.664063-.304688-.527344-.097656-1.066406-.117187-1.601562-.058594-.574219.066407-1.144532.167969-1.707032.304688-2.191406.671875-4.046874 2.152344-5.1875 4.140625-.554687 1.023437-.875 2.15625-.929687 3.316406-.078125 3.542969 1.859375 6.820313 5 8.457031 1.027344.460938 2.140625.714844 3.265625.742188 1.117188.058594 2.230469-.105469 3.277344-.484375 2.089844-.832031 3.808594-2.394531 4.839844-4.394531.929687-1.976563 1.054687-4.238282.347656-6.308594zm0 0"/><path d="m108.984375 107.523438c-12.609375 11.140624-23.882813 23.707031-33.59375 37.453124-7.027344-6.59375-15.234375-11.800781-24.191406-15.34375-15.796875-4.40625-32.191407 4.75-36.726563 20.511719s4.488282 32.230469 20.214844 36.890625c3.332031.898438 6.789062 1.269532 10.238281 1.09375 1.800781 0 3.960938-.058594 6.460938-.195312-11.433594 27.085937-17.300781 56.195312-17.253907 85.597656.191407 11.824219 1.214844 23.625 3.0625 35.308594.269532 2.265625 1.472657 4.3125 3.3125 5.660156 1.839844 1.34375 4.160157 1.863281 6.398438 1.433594 4.558594-.917969 7.65625-5.167969 7.140625-9.789063-1.703125-10.792969-2.65625-21.691406-2.847656-32.613281-.050781-30.257812 6.679687-60.144531 19.695312-87.460938 2.558594-.324218 5.296875-.671874 8.277344-1.089843 6.453125-.882813 11.832031-5.386719 13.835937-11.585938 2-6.199219.269532-13-4.449218-17.488281 3.472656-4.976562 7.15625-9.839844 11.089844-14.507812-.21875 2.355468-.261719 3.867187-.269532 4.054687-.039062 3.179687 1.691406 6.113281 4.492188 7.617187 2.800781 1.507813 6.207031 1.328126 8.835937-.457031 49.167969-33.347656 63.761719-32.425781 84-31.011719 4.761719.316407 9.789063.648438 15.480469.648438 7.183594.4375 14.078125-2.886719 18.210938-8.78125 5.972656-8.703125 5.691406-22.757812-.855469-42.808594 17.539062-2.28125 35.300781-2.28125 52.839843 0-6.492187 20-6.765624 34.089844-.792968 42.808594 4.128906 5.878906 11.011718 9.195312 18.183594 8.765625 5.691406 0 10.71875-.332031 15.480468-.648437 20.242188-1.382813 34.832032-2.332032 84 31.007812 2.628906 1.789062 6.035156 1.964844 8.835938.460938 2.800781-1.503907 4.53125-4.441407 4.496094-7.617188 0-.199219-.050782-1.707031-.273438-4.070312 3.957031 4.675781 7.679688 9.546874 11.09375 14.503906-4.722656 4.492187-6.453125 11.289062-4.449219 17.488281 2 6.203125 7.378907 10.703125 13.835938 11.585937 2.976562.417969 5.683593.769532 8.277343 1.09375 13.03125 27.320313 19.773438 57.21875 19.726563 87.492188-.125 113.054688-91.742187 204.671875-204.800781 204.796875-26.953125-.300781-53.617188-5.621094-78.625-15.683594-4.121094-1.707031-8.089844-3.839843-12.152344-5.734375-4.101562-1.804687-8.0625-3.921875-11.84375-6.332031l-11.492188-6.96875-10.789062-8.023437-5.390625-4.027344-4.96875-4.523438-9.921875-9.078125c-6.230469-6.445312-12.078125-13.246093-17.511719-20.378906-2.621093-3.632813-5.496093-7.089844-7.933593-10.855469l-6.972657-11.484375c-1.5-2.28125-2.824219-4.675781-3.960937-7.160156-2.128906-4.097656-7.132813-5.757813-11.289063-3.746094-2.066406 1.019531-3.640625 2.824219-4.367187 5.011719-.726563 2.1875-.546875 4.574219.5 6.628906 1.242187 2.683594 2.667968 5.273438 4.269531 7.757813l7.566406 12.441406c2.648438 4.070313 5.726563 7.832031 8.585938 11.757813 5.875 7.726562 12.210937 15.097656 18.96875 22.066406l10.734375 9.839844 5.394531 4.890624 5.828125 4.367188 11.699219 8.679688 12.441406 7.570312c68.59375 39.921875 153.296875 40.117188 222.070313.511719 68.777343-39.605469 111.125-112.960938 111.027343-192.324219.0625-29.398438-5.792969-58.507812-17.210937-85.597656 2.5.136718 4.660156.195312 6.460937.195312 3.449219.171875 6.902344-.195312 10.238281-1.09375 11.609376-3.339844 20.058594-13.34375 21.417969-25.347656 1.355469-12.003906-4.652343-23.640625-15.222656-29.488281-6.917969-3.859375-15.101563-4.78125-22.707031-2.558594-8.96875 3.546875-17.183594 8.757813-24.21875 15.359375-9.699219-13.757812-20.980469-26.335938-33.609375-37.46875-7.015625-15.664062-17.800781-29.347656-31.394531-39.824219 20.332031-14.261719 23.523437-19.328125 24.832031-21.386719 8.808593-13.945312 4.640625-32.394531-9.308594-41.203124-13.945313-8.808594-32.394531-4.640626-41.203125 9.304687-1.363281 2.160156-4.777344 7.683594-9.171875 34.988281-7.21875-2.515625-14.613281-4.488281-22.125-5.894531-9.914063-1.777344-19.941406 2.46875-25.558594 10.828125-21.964843-3.316406-44.304687-3.316406-66.269531 0-5.570312-8.347656-15.554688-12.601562-25.429688-10.839844-7.535156 1.40625-14.949218 3.378906-22.1875 5.898438-4.394531-27.308594-7.808593-32.835938-9.171874-34.988282-8.824219-13.902343-27.238282-18.039062-41.164063-9.25-13.921875 8.792969-18.105469 27.195313-9.347656 41.140626 1.308593 2.066406 4.5 7.125 24.832031 21.382812-13.574219 10.492188-24.347656 24.175781-31.359375 39.835938zm-69.613281 63.144531c-4.972656-1.433594-8.59375-5.722657-9.171875-10.867188-.578125-5.140625 1.996093-10.128906 6.527343-12.632812 1.882813-1.0625 4.003907-1.628907 6.167969-1.636719 1.203125 0 2.402344.171875 3.558594.503906 9.492187 4.878906 18.238281 11.089844 25.976563 18.4375l.09375.09375c1.398437 1.152344 2.679687 2.1875 4.265624 3.484375-30.214843 4.28125-36.761718 2.761719-37.417968 2.585938zm426.171875-24.601563c4.394531-1.265625 9.128906-.089844 12.421875 3.085938 3.292968 3.171875 4.644531 7.859375 3.542968 12.300781-1.101562 4.4375-4.488281 7.949219-8.882812 9.214844-.648438.1875-7.175781 1.707031-37.417969-2.558594 23.355469-19.695313 29.6875-21.886719 30.335938-22.074219zm-87.519531-126.523437c2.875 1.8125 4.910156 4.691406 5.660156 8.003906.746094 3.3125.148437 6.789063-1.664063 9.660156-.359375.5625-4.269531 6.015625-29.476562 22.878907h-.09375v-.121094c4.328125-29.992188 7.585937-35.839844 7.953125-36.460938 3.785156-5.945312 11.660156-7.714844 17.621094-3.960937zm-66.457032 40.773437c8.726563 1.578125 17.269532 4.042969 25.5 7.355469 2.863282 5.847656 8.796875 9.5625 15.308594 9.589844.859375-.058594 1.714844-.1875 2.558594-.382813 14.761718 9.351563 26.332031 22.964844 33.175781 39.039063.113281.257812.242187.511719.378906.761719 1.542969 3.609374 2.855469 7.3125 3.921875 11.09375-32.554687-20.125-49.714844-23.800782-65.347656-23.800782-4.332031 0-8.53125.28125-12.925781.570313-4.394531.292969-9.070313.617187-14.347657.617187-3.15625 0-3.820312-.972656-4.078124-1.332031-2.40625-3.523437-2.21875-15.359375 5.972656-36.488281.265625-.558594.496094-1.128906.703125-1.707032 1.394531-3.742187 5.242187-5.96875 9.179687-5.316406zm-181.589844-23.117187c-3.597656-5.96875-1.761718-13.71875 4.132813-17.4375 5.898437-3.714844 13.683594-2.035157 17.515625 3.785156.367188.585937 3.621094 6.457031 7.972656 36.394531 0 .066406 0 .128906-.050781.1875-25.335937-16.898437-29.210937-22.359375-29.570313-22.929687zm27.101563 39.695312c.84375.195313 1.699219.324219 2.5625.386719 6.507813-.039062 12.433594-3.761719 15.289063-9.609375 8.238281-3.3125 16.789062-5.78125 25.523437-7.363281 4-.628906 7.886719 1.664062 9.269531 5.46875l.339844.921875c8.457031 21.769531 8.644531 33.613281 6.238281 37.136719-.257812.359374-.921875 1.332031-4.078125 1.332031-5.273437 0-9.925781-.316407-14.34375-.617188-20.234375-1.355469-36.695312-2.457031-78.292968 23.238281 1.074218-3.757812 2.382812-7.445312 3.914062-11.042968.144531-.265625.28125-.535156.402344-.851563 6.851562-16.0625 18.421875-29.660156 33.175781-39zm0 0"/><path d="m8.746094 22.648438c-11.660156 11.664062-11.660156 30.570312 0 42.234374 1.976562 1.976563 7.21875 7.21875 39.960937 19.746094 1.972657.765625 4.070313 1.160156 6.1875 1.167969 5.597657-.035156 10.820313-2.816406 13.980469-7.4375 3.160156-4.625 3.847656-10.503906 1.847656-15.730469-12.527344-32.742187-17.765625-37.980468-19.738281-39.980468-11.671875-11.640626-30.566406-11.640626-42.238281 0zm46.0625 46.082031c-28.527344-10.933594-33.476563-15.410157-33.996094-15.890625-5-5-4.996094-13.105469.003906-18.101563 5-5 13.105469-4.996093 18.101563.003907.476562.476562 4.96875 5.484374 15.890625 33.988281zm0 0"/><path d="m463.289062 84.652344c32.742188-12.527344 37.984376-17.765625 39.960938-19.746094 11.664062-11.664062 11.664062-30.574219 0-42.238281-11.664062-11.664063-30.574219-11.664063-42.238281 0-1.972657 1.96875-7.210938 7.210937-19.738281 39.960937-2 5.226563-1.3125 11.105469 1.847656 15.730469 3.15625 4.621094 8.382812 7.402344 13.980468 7.4375 2.117188 0 4.214844-.386719 6.1875-1.144531zm9.789063-49.910156c4.996094-5 13.101563-5.003907 18.101563-.003907 5 4.996094 5.003906 13.101563.003906 18.101563-.476563.480468-5.46875 4.957031-33.976563 15.890625 10.902344-28.503907 15.390625-33.511719 15.871094-33.988281zm0 0"/></g></svg>