<?xml version="1.0" encoding="iso-8859-1"?>
<!-- Generator: Adobe Illustrator 19.0.0, SVG Export Plug-In . SVG Version: 6.00 Build 0)  -->
<svg version="1.1" id="Capa_1" xmlns="http://www.w3.org/2000/svg" xmlns:xlink="http://www.w3.org/1999/xlink" x="0px" y="0px"
	 viewBox="0 0 512.001 512.001" style="enable-background:new 0 0 512.001 512.001;" xml:space="preserve">
<g>
	<g transform="translate(1 15)">
		<g>
			<path style="fill:#E3E7F2;" d="M124.586,353.385l-44.8,85.76c-2.075,4.012-5.663,7.033-9.971,8.394
				c-4.307,1.361-8.98,0.951-12.984-1.141c-5.639-2.975-9.182-8.814-9.216-15.189c0.033-2.734,0.705-5.423,1.963-7.851
				l45.141-86.528C104.197,343.169,114.188,348.706,124.586,353.385z"/>
			<path style="fill:#E3E7F2;" d="M453.119,446.739c-2.428,1.258-5.116,1.93-7.851,1.963c-6.353-0.037-12.165-3.583-15.104-9.216
				l-44.971-86.101c6.806-3.023,13.444-6.413,19.883-10.155v-0.085c3.413-2.048,6.741-4.096,9.899-6.315l45.397,86.869
				C464.714,432.066,461.471,442.368,453.119,446.739z"/>
		</g>
		<path style="fill:#A4C2F7;" d="M493.823,195.689c0.256,9.131,0.341,96.683-78.848,149.675c-3.157,2.219-6.485,4.267-9.899,6.315
			v0.085c-6.439,3.742-13.076,7.132-19.883,10.155c-3.499,1.621-7.083,3.072-10.837,4.523
			c-32.788,12.1-67.372,18.619-102.315,19.285h-34.133c-38.96-0.522-77.447-8.607-113.323-23.808
			c-10.398-4.678-20.389-10.216-29.867-16.555c-83.285-56.149-78.592-150.443-78.592-150.443c0-40.363,97.792-73.472,221.781-76.203
			c5.632-0.171,11.349-0.256,17.067-0.256c132.011,0,238.933,34.219,238.933,76.459
			C493.923,195.179,493.894,195.439,493.823,195.689z"/>
		
			<linearGradient id="SVGID_1_" gradientUnits="userSpaceOnUse" x1="-49.7195" y1="637.7226" x2="-49.1317" y2="636.3599" gradientTransform="matrix(442.3308 0 0 -190.8053 22094.5664 121789.8203)">
			<stop  offset="0" style="stop-color:#D4E1F4"/>
			<stop  offset="0.1717" style="stop-color:#D4E1F4"/>
			<stop  offset="0.2" style="stop-color:#D4E1F4"/>
			<stop  offset="0.2001" style="stop-color:#DAE4F4"/>
			<stop  offset="0.2007" style="stop-color:#EBEBF4"/>
			<stop  offset="0.2014" style="stop-color:#F6F1F4"/>
			<stop  offset="0.2023" style="stop-color:#FDF4F4"/>
			<stop  offset="0.205" style="stop-color:#FFF5F4"/>
			<stop  offset="0.2522" style="stop-color:#FFF5F4"/>
			<stop  offset="0.26" style="stop-color:#FFF5F4"/>
			<stop  offset="0.26" style="stop-color:#D4E1F4"/>
			<stop  offset="0.3974" style="stop-color:#D4E1F4"/>
			<stop  offset="0.42" style="stop-color:#D4E1F4"/>
			<stop  offset="0.4201" style="stop-color:#DAE4F4"/>
			<stop  offset="0.4207" style="stop-color:#EBEBF4"/>
			<stop  offset="0.4214" style="stop-color:#F6F1F4"/>
			<stop  offset="0.4223" style="stop-color:#FDF4F4"/>
			<stop  offset="0.425" style="stop-color:#FFF5F4"/>
			<stop  offset="0.4894" style="stop-color:#FFF5F4"/>
			<stop  offset="0.5" style="stop-color:#FFF5F4"/>
			<stop  offset="0.5" style="stop-color:#F9F2F4"/>
			<stop  offset="0.5001" style="stop-color:#E8EBF4"/>
			<stop  offset="0.5003" style="stop-color:#DDE5F4"/>
			<stop  offset="0.5005" style="stop-color:#D6E2F4"/>
			<stop  offset="0.501" style="stop-color:#D4E1F4"/>
			<stop  offset="0.7062" style="stop-color:#D4E1F4"/>
			<stop  offset="0.74" style="stop-color:#D4E1F4"/>
			<stop  offset="0.741" style="stop-color:#FFF5F4"/>
			<stop  offset="0.8346" style="stop-color:#FFF5F4"/>
			<stop  offset="0.85" style="stop-color:#FFF5F4"/>
			<stop  offset="0.851" style="stop-color:#D4E1F4"/>
		</linearGradient>
		<path style="fill:url(#SVGID_1_);" d="M458.41,216.766c-5.756,52.163-34.112,99.174-77.568,128.597
			c-3.157,2.219-6.485,4.267-9.899,6.315v0.085c-6.439,3.742-13.076,7.132-19.883,10.155c-3.499,1.621-7.083,3.072-10.837,4.523
			c-32.788,12.1-67.372,18.619-102.315,19.285c-38.96-0.522-77.447-8.607-113.323-23.808c-10.398-4.678-20.389-10.216-29.867-16.555
			c-83.285-56.149-78.592-150.443-78.592-150.443c0,40.789,99.755,74.155,225.451,76.373h1.109
			C345.173,269.502,430.335,247.059,458.41,216.766z"/>
		<path style="fill:#A4C2F7;" d="M493.909,194.921c0.014,0.259-0.015,0.518-0.085,0.768
			c-1.195,41.899-107.605,75.691-238.848,75.691c-4.096,0-8.192,0-12.288-0.085h-1.109
			c-125.696-2.219-225.451-35.584-225.451-76.373s99.84-74.155,225.536-76.373h1.024c4.096-0.085,8.192-0.085,12.288-0.085
			C386.986,118.462,493.909,152.681,493.909,194.921z"/>
		<g>
			<path style="fill:#E3E7F2;" d="M468.309,194.921c0.014,0.259-0.015,0.518-0.085,0.768c-0.62,7.98-4.106,15.466-9.813,21.077
				c-28.075,30.293-113.237,52.736-215.723,54.528h-1.109c-125.696-2.219-225.451-35.584-225.451-76.373
				c0.017-2.849,0.508-5.675,1.451-8.363c0.747-2.241,1.749-4.388,2.987-6.4c0.046-0.046,0.076-0.106,0.085-0.171
				c1.403-2.189,3.003-4.245,4.779-6.144c2.376-2.748,5.036-5.237,7.936-7.424c0.939-0.768,1.877-1.536,2.901-2.219
				c7.349-5.271,15.246-9.734,23.552-13.312c2.048-1.024,4.267-1.963,6.485-2.816c4.864-2.048,9.984-3.925,15.445-5.803
				c7.168-2.389,14.763-4.693,22.869-6.741c2.816-0.768,5.717-1.451,8.619-2.133c2.987-0.683,5.973-1.365,9.045-2.048
				c6.059-1.365,12.373-2.56,18.859-3.669c12.971-2.304,26.625-4.181,40.875-5.547c7.083-0.768,14.421-1.365,21.76-1.877
				c12.288-0.939,25.003-1.451,37.888-1.707h1.024C368.469,120.766,468.309,154.131,468.309,194.921z"/>
			<path style="fill:#E3E7F2;" d="M254.975,343.401L254.975,343.401c9.426,0,17.067,7.641,17.067,17.067v110.933
				c0,9.426-7.641,17.067-17.067,17.067l0,0c-9.426,0-17.067-7.641-17.067-17.067V360.467
				C237.909,351.042,245.55,343.401,254.975,343.401z"/>
		</g>
		<path style="fill:#FFFFFF;" d="M135.509,360.467c-79.851-56.382-93.781-165.547-93.781-165.547
			c0.001-1.265,0.097-2.529,0.289-3.78c0.018-0.118,0.058-0.236,0.078-0.354c0.026-0.153,0.076-0.303,0.105-0.456
			c0.036-0.195,0.093-0.387,0.133-0.582c0.164-0.782,0.301-1.567,0.538-2.342c0.078-0.255,0.199-0.505,0.284-0.759l0.024-0.09
			c0.088-0.274,0.227-0.548,0.326-0.822c0.251-0.671,0.466-1.345,0.771-2.01l0.127-0.253c0.529-1.135,1.117-2.241,1.763-3.315
			c0.046-0.046,0.076-0.106,0.085-0.171c0.645-1.02,1.341-2.007,2.085-2.957c0.122-0.162,0.224-0.327,0.349-0.489
			c0.496-0.643,1.073-1.275,1.62-1.912c0.452-0.527,0.867-1.059,1.354-1.582c0.608-0.653,1.295-1.293,1.955-1.938
			c0.238-0.233,0.461-0.468,0.705-0.7c0.155-0.146,0.286-0.295,0.444-0.441c0.127-0.117,0.245-0.235,0.373-0.353
			c0.725-0.662,1.528-1.312,2.308-1.966c0.55-0.461,1.064-0.926,1.64-1.382c0.874-0.692,1.825-1.371,2.759-2.052
			c0.556-0.405,1.078-0.816,1.655-1.217c0.898-0.625,1.865-1.237,2.814-1.853c0.367-0.241,0.727-0.483,1.102-0.721
			c0.322-0.204,0.623-0.41,0.951-0.613c0.929-0.575,1.921-1.136,2.894-1.703c0.618-0.36,1.217-0.725,1.852-1.081l0.557-0.316
			c1.351-0.748,2.773-1.482,4.2-2.214l0.408-0.215c0.18-0.091,0.345-0.186,0.526-0.277c0.201-0.102,0.395-0.205,0.597-0.305
			c1.592-0.795,3.254-1.574,4.934-2.348c0.393-0.181,0.764-0.366,1.162-0.546c1.823-0.826,3.715-1.634,5.637-2.434
			c0.298-0.124,0.58-0.252,0.881-0.375c2.089-0.859,4.242-1.701,6.441-2.53l0.428-0.166c2.422-0.909,4.909-1.799,7.46-2.671
			c0.344-0.119,0.663-0.241,1.01-0.36c0.178-0.06,0.372-0.115,0.551-0.174c3.034-1.017,6.178-2,9.382-2.962
			c0.829-0.25,1.668-0.491,2.508-0.736c15.269-4.387,30.767-7.931,46.425-10.617c0.181-0.031,0.345-0.072,0.526-0.102l0.351-0.055
			c5.586-0.968,11.306-1.864,17.159-2.686c1.289-0.182,2.56-0.373,3.86-0.547c18.728-2.523,38.677-4.292,59.473-5.215
			c0.471-0.021,0.946-0.039,1.419-0.058c5.904-0.25,11.861-0.447,17.892-0.558c-3.949-0.062-7.923-0.094-11.919-0.097
			c-4.096,0-8.192,0-12.288,0.085h-1.024c-6.159,0.109-12.235,0.314-18.261,0.569c-0.472,0.02-0.947,0.038-1.419,0.058
			c-20.797,0.922-40.745,2.692-59.473,5.215c-1.3,0.173-2.571,0.365-3.86,0.547c-5.842,0.827-11.562,1.722-17.159,2.686l-0.35,0.056
			c-0.181,0.031-0.346,0.071-0.527,0.102c-15.658,2.686-31.156,6.23-46.425,10.617c-0.84,0.245-1.68,0.487-2.508,0.736
			c-3.204,0.962-6.347,1.945-9.382,2.962c-0.179,0.059-0.372,0.115-0.551,0.174c-0.347,0.119-0.666,0.241-1.01,0.36
			c-2.551,0.871-5.038,1.762-7.46,2.671l-0.428,0.166c-2.198,0.83-4.352,1.671-6.441,2.53c-0.3,0.123-0.583,0.252-0.881,0.375
			c-1.922,0.801-3.813,1.609-5.637,2.434c-0.398,0.18-0.769,0.365-1.162,0.546c-1.68,0.774-3.342,1.553-4.934,2.348
			c-0.202,0.101-0.396,0.204-0.597,0.305c-0.181,0.091-0.346,0.186-0.526,0.277l-0.408,0.214c-1.427,0.732-2.849,1.465-4.2,2.214
			l-0.557,0.316c-0.635,0.356-1.234,0.721-1.852,1.081c-0.973,0.566-1.965,1.128-2.894,1.703c-0.328,0.203-0.629,0.41-0.951,0.613
			c-0.375,0.239-0.735,0.481-1.102,0.721c-0.949,0.616-1.916,1.228-2.814,1.853c-0.577,0.401-1.099,0.812-1.655,1.217
			c-0.934,0.681-1.885,1.36-2.759,2.052c-0.576,0.456-1.09,0.922-1.64,1.382c-0.78,0.654-1.583,1.304-2.308,1.966
			c-0.128,0.117-0.246,0.235-0.373,0.353c-0.158,0.146-0.29,0.295-0.444,0.441c-0.245,0.232-0.467,0.467-0.705,0.7
			c-0.66,0.645-1.347,1.285-1.955,1.938c-0.486,0.522-0.901,1.055-1.354,1.582c-0.546,0.637-1.124,1.269-1.62,1.912
			c-0.125,0.162-0.227,0.327-0.349,0.489c-0.744,0.95-1.44,1.937-2.085,2.957c-0.009,0.065-0.039,0.125-0.085,0.171
			c-0.645,1.073-1.234,2.18-1.763,3.315l-0.127,0.253c-0.305,0.665-0.52,1.339-0.771,2.01c-0.099,0.274-0.239,0.548-0.326,0.822
			l-0.023,0.09c-0.085,0.254-0.207,0.505-0.284,0.759c-0.237,0.776-0.374,1.56-0.538,2.342c-0.041,0.194-0.097,0.387-0.133,0.582
			c-0.029,0.153-0.079,0.303-0.105,0.456c-0.02,0.118-0.06,0.236-0.078,0.354c-0.191,1.251-0.288,2.514-0.289,3.78
			c0,0-4.506,91.751,75.345,148.133"/>
	</g>
	<g>
		<path style="fill:#428DFF;" d="M256,124.959c-119.954,0-247.442,29.783-247.442,84.983c0,0.095,0.02,0.186,0.02,0.281
			c-0.09,47.528,17.439,93.403,49.201,128.761c8.169,8.873,17.189,16.924,26.931,24.036l-41.76,80.047
			c-3.12,6.016-3.72,13.026-1.668,19.485c2.052,6.459,6.589,11.837,12.609,14.948c3.624,1.895,7.652,2.885,11.742,2.883
			c9.546,0.011,18.304-5.293,22.717-13.758l41.158-78.788c32.23,12.524,66.315,19.61,100.866,20.97v77.593
			c0,14.138,11.462,25.6,25.6,25.6c14.139,0,25.6-11.462,25.6-25.6v-77.595c33.084-1.358,65.751-7.897,96.808-19.38
			c1.299-0.492,2.561-1.13,3.854-1.65l41.383,79.233c4.409,8.434,13.128,13.732,22.646,13.758c4.131-0.039,8.194-1.052,11.858-2.958
			c12.442-6.613,17.258-21.998,10.808-34.525l-41.892-80.162c48.229-35.788,76.571-92.374,76.346-152.431
			c0.005-0.252,0.054-0.495,0.054-0.748C503.442,154.742,375.954,124.959,256,124.959z M256,142.025
			c135.7,0,230.283,35.757,230.371,67.872c-0.001,0.155-0.074,0.289-0.067,0.445l0.009,0.274
			c-1.307,31.95-95.497,67.243-230.314,67.243c-135.763,0-230.375-35.792-230.375-67.917S120.238,142.025,256,142.025z
			 M73.217,458.734c-2.146,4.144-7.235,5.779-11.392,3.658c-2.041-1.021-3.583-2.824-4.276-4.999
			c-0.693-2.175-0.477-4.537,0.597-6.551l40.842-78.284c4.81,2.919,9.791,5.667,14.943,8.244L73.217,458.734z M264.509,486.401
			c0,4.713-3.821,8.533-8.533,8.533c-4.713,0-8.533-3.821-8.533-8.533V375.467c0-4.713,3.821-8.533,8.533-8.533
			c4.713,0,8.533,3.82,8.533,8.533V486.401z M453.804,451.176c2.188,4.127,0.631,9.247-3.483,11.458
			c-1.995,1.141-4.374,1.404-6.571,0.729s-4.016-2.231-5.025-4.296l-40.891-78.289c4.229-2.108,8.448-4.253,12.541-6.636
			c0.338-0.199,0.661-0.422,0.967-0.667c0.482-0.285,0.922-0.59,1.398-0.877L453.804,451.176z M401.763,359.309
			c-0.317,0.189-0.622,0.398-0.912,0.625c-9.154,5.272-18.713,9.806-28.588,13.558c-29.102,10.74-59.696,16.89-90.688,18.229
			v-16.254c0-14.138-11.461-25.6-25.6-25.6c-14.138,0-25.6,11.462-25.6,25.6v16.108c-70.624-4.135-124.493-25.498-159.842-63.933
			c-20.83-23.091-35.029-51.384-41.094-81.885c40.973,32.142,135.897,49.168,226.56,49.168c90.657,0,185.574-17.023,226.552-49.161
			C473.231,293.482,443.788,334.862,401.763,359.309z"/>
		<path style="fill:#428DFF;" d="M68.242,230.401c2.264,0.003,4.435-0.897,6.033-2.5l42.667-42.667
			c3.281-3.341,3.256-8.701-0.054-12.012c-3.311-3.311-8.671-3.335-12.012-0.054l-42.667,42.667c-2.44,2.44-3.169,6.11-1.849,9.298
			C61.68,228.321,64.791,230.4,68.242,230.401z"/>
		<path style="fill:#428DFF;" d="M96.342,244.967c1.6,1.601,3.77,2.5,6.033,2.5c2.263,0,4.433-0.899,6.033-2.5l68.267-68.267
			c3.296-3.338,3.279-8.711-0.038-12.029c-3.317-3.317-8.691-3.334-12.029-0.038l-68.267,68.267c-1.601,1.6-2.5,3.77-2.5,6.033
			S94.742,243.367,96.342,244.967z"/>
		<path style="fill:#428DFF;" d="M139.009,253.5c1.6,1.601,3.77,2.5,6.033,2.5c2.263,0,4.433-0.899,6.033-2.5l85.333-85.333
			c3.296-3.338,3.279-8.711-0.038-12.029c-3.317-3.317-8.691-3.334-12.029-0.038l-85.333,85.333c-1.601,1.6-2.5,3.77-2.5,6.033
			C136.509,249.73,137.408,251.9,139.009,253.5z"/>
		<path style="fill:#428DFF;" d="M181.676,262.034c1.6,1.601,3.77,2.5,6.033,2.5c2.263,0,4.433-0.899,6.033-2.5l93.867-93.867
			c2.178-2.151,3.037-5.304,2.251-8.262c-0.786-2.958-3.097-5.269-6.055-6.055c-2.958-0.786-6.111,0.073-8.262,2.251l-93.867,93.867
			c-1.601,1.6-2.5,3.77-2.5,6.033S180.075,260.434,181.676,262.034z"/>
		<path style="fill:#428DFF;" d="M232.876,262.034c1.6,1.601,3.77,2.5,6.033,2.5s4.433-0.899,6.033-2.5l85.333-85.333
			c2.178-2.151,3.037-5.304,2.251-8.262c-0.786-2.958-3.097-5.269-6.055-6.055s-6.111,0.073-8.262,2.251l-85.333,85.333
			c-1.601,1.6-2.5,3.77-2.5,6.033S231.275,260.434,232.876,262.034z"/>
		<path style="fill:#428DFF;" d="M284.076,262.034c1.6,1.601,3.77,2.5,6.033,2.5s4.433-0.899,6.033-2.5l76.8-76.8
			c2.178-2.151,3.037-5.304,2.251-8.262c-0.786-2.958-3.097-5.269-6.055-6.055c-2.958-0.786-6.111,0.073-8.262,2.251l-76.8,76.8
			c-1.601,1.6-2.5,3.77-2.5,6.033S282.475,260.434,284.076,262.034z"/>
		<path style="fill:#428DFF;" d="M343.809,253.5c1.6,1.601,3.77,2.5,6.033,2.5s4.433-0.899,6.033-2.5l68.267-68.267
			c2.178-2.151,3.037-5.304,2.251-8.262c-0.786-2.958-3.097-5.269-6.055-6.055c-2.958-0.786-6.111,0.073-8.262,2.251l-68.267,68.267
			c-1.601,1.6-2.5,3.77-2.5,6.033C341.309,249.73,342.208,251.9,343.809,253.5z"/>
		<path style="fill:#428DFF;" d="M403.542,244.967c1.6,1.601,3.77,2.5,6.033,2.5s4.433-0.899,6.033-2.5l34.133-34.133
			c2.178-2.151,3.037-5.304,2.251-8.262c-0.786-2.958-3.097-5.269-6.055-6.055c-2.958-0.786-6.111,0.073-8.262,2.251l-34.133,34.133
			c-1.601,1.6-2.5,3.77-2.5,6.033S401.942,243.367,403.542,244.967z"/>
		<path style="fill:#428DFF;" d="M229.2,14.009c1.956-2.339,2.516-5.543,1.469-8.406c-1.047-2.863-3.542-4.95-6.546-5.475
			c-3.003-0.525-6.058,0.593-8.014,2.931l-20.488,24.5c-10.507,12.539-10.568,30.791-0.146,43.4l0.162,0.2
			c5.249,6.271,5.251,15.402,0.004,21.675l-3.425,4.092c-1.956,2.337-2.517,5.54-1.471,8.403c1.046,2.863,3.54,4.95,6.542,5.475
			c3.002,0.525,6.056-0.591,8.012-2.928l3.429-4.092c10.502-12.537,10.565-30.782,0.15-43.392l-0.167-0.208
			c-5.254-6.27-5.254-15.405,0-21.675L229.2,14.009z"/>
		<path style="fill:#428DFF;" d="M280.4,14.009c3.024-3.615,2.544-8.997-1.071-12.021c-3.615-3.024-8.997-2.544-12.021,1.071
			l-20.488,24.5c-10.507,12.539-10.568,30.791-0.146,43.4l0.162,0.2c5.249,6.271,5.251,15.402,0.004,21.675l-3.425,4.092
			c-1.956,2.337-2.517,5.54-1.471,8.403c1.046,2.863,3.54,4.95,6.542,5.475c3.002,0.525,6.056-0.591,8.012-2.928l3.429-4.092
			c10.502-12.537,10.565-30.782,0.15-43.392l-0.167-0.208c-5.254-6.27-5.254-15.405,0-21.675L280.4,14.009z"/>
		<path style="fill:#428DFF;" d="M331.6,14.009c3.024-3.615,2.544-8.997-1.071-12.021c-3.615-3.024-8.997-2.544-12.021,1.071
			l-20.488,24.5c-10.507,12.539-10.568,30.791-0.146,43.4l0.162,0.2c5.249,6.271,5.251,15.402,0.004,21.675l-3.425,4.092
			c-3.024,3.613-2.546,8.993,1.067,12.017c3.613,3.024,8.993,2.546,12.017-1.067l3.429-4.092
			c10.502-12.537,10.565-30.782,0.15-43.392l-0.167-0.208c-5.254-6.27-5.254-15.405,0-21.675L331.6,14.009z"/>
	</g>
</g>
<g>
</g>
<g>
</g>
<g>
</g>
<g>
</g>
<g>
</g>
<g>
</g>
<g>
</g>
<g>
</g>
<g>
</g>
<g>
</g>
<g>
</g>
<g>
</g>
<g>
</g>
<g>
</g>
<g>
</g>
</svg>
