<svg height="512" viewBox="0 0 64 64" width="512" xmlns="http://www.w3.org/2000/svg"><g id="Pencil_and_ruler" data-name="Pencil and ruler"><g fill="#9bc9ff"><path d="m52.8 41.487-2.828-2.828-2.832-2.829-1-1-1.828-1.83-1-1-1.412-1.41-11.31 11.31 18.38 18.38 11.31-11.31zm-1 10.313a2 2 0 1 1 0-2.828 2 2 0 0 1 0 2.828z"/><path d="m47.26 16.74 2.928 2.921-2.925-2.924z"/><path d="m44.339 13.812 2.921 2.928.003-.003z"/><path d="m32 20.69-1.83-1.83-2.829-2.829-2.828-2.828-2.829-2.829-2.828-2.828-3.826-3.826-11.31 11.31 18.38 18.38 11.31-11.31z"/><path d="m7.67 47.85 7.051 1.398 1.429 7.082 14.44-14.43 11.31-11.31 9.61-9.61-.002-.002-.002.001-1.318-1.318-2.928-2.921-32.523 32.523 32.523-32.523-2.921-2.928-1.318-1.318.001-.002-.002-.002-9.61 9.61-11.31 11.31z"/><path d="m47.263 16.737 2.925 2.924 1.32 1.317 3.534-3.534-8.486-8.486-3.534 3.534 1.317 1.32z"/><path d="m51.506 20.979.002-.001-1.32-1.317z"/><path d="m44.339 13.812-1.317-1.32-.001.002z"/><path d="m10.69 57.938a7.013 7.013 0 0 0 -4.628-4.628l-1.932 6.56z"/></g><path d="m61.694 48.97-18.381-18.382 15.264-15.266a7 7 0 0 0 -9.9-9.9l-15.266 15.265-18.381-18.381-12.724 12.724 18.383 18.383-13.907 13.91-4.13 14.025 14.025-4.131 13.91-13.906 18.383 18.383zm-51.907 5.243a7.933 7.933 0 0 0 -2.455-1.676l1.04-3.528 5.5 1.09 1.116 5.531-3.525 1.038a7.957 7.957 0 0 0 -1.676-2.455zm36.062-37.476-31.431 31.431-4.718-.935 33.318-33.327zm-30.037 32.863 31.451-31.449 2.831 2.831-33.333 33.324zm34.28-42.763a5 5 0 0 1 7.071 7.071l-2.121 2.122-7.071-7.072zm-3.535 3.536 7.071 7.071-2.12 2.119-7.071-7.071zm-41.423 4.657 9.9-9.9 2.412 2.412-3.538 3.538 1.414 1.414 3.534-3.534 1.414 1.414-2.12 2.12 1.414 1.414 2.121-2.119 1.415 1.411-3.534 3.534 1.414 1.414 3.534-3.534 1.414 1.414-2.119 2.12 1.414 1.414 2.119-2.12 1.415 1.415-3.534 3.534 1.414 1.414 3.534-3.534 1.829 1.829-9.9 9.9zm1.624 39.456a5.957 5.957 0 0 1 1.615 1.141 5.976 5.976 0 0 1 1.142 1.615l-3.908 1.151zm35.142-22.486 1 1-2.12 2.12 1.414 1.414 2.12-2.12 1.415 1.414-3.535 3.534 1.414 1.414 3.535-3.534 1.414 1.415-2.119 2.119 1.414 1.414 2.119-2.119 1.414 1.414-3.535 3.536 1.414 1.414 3.536-3.535 6.069 6.069-9.9 9.9-16.969-16.969z" fill="#1e81ce"/><path d="m52.506 52.506a3 3 0 0 0 0-4.242 3 3 0 1 0 0 4.243zm-3.121-2.121a1 1 0 0 1 1.707-.707 1 1 0 1 1 -1.707.707z" fill="#1e81ce"/></g></svg>