<svg height="512" viewBox="0 0 60 60" width="512" xmlns="http://www.w3.org/2000/svg"><g id="Page-1" fill="none" fill-rule="evenodd"><g id="001---Degree" fill-rule="nonzero"><path id="Shape" d="m58.33 12.94-6.4 2.29c-.2859132-.1531674-.605652-.2322426-.93-.23-.801524.0040745-1.5242544.4832762-1.84 1.22l-5.16 1.84v-4.06c0-1.66-6.27-3-14-3s-14 1.34-14 3v4.06l-14.33-5.12c-.39548448-.1435417-.65882556-.5192718-.65882556-.94s.26334108-.7964583.65882556-.94l27.98-10c.2264785-.07998655.4735215-.07998655.7 0l27.98 10c.3954845.1435417.6588256.5192718.6588256.94s-.2633411.7964583-.6588256.94z" fill="#cad9fc"/><path id="Shape" d="m27 11c-7.73 0-14 1.34-14 3v2.988l3 1.072v-4.06c0-1.551 5.475-2.822 12.5-2.982-.4926667-.012-.9926667-.018-1.5-.018z" fill="#a4c2f7"/><path id="Shape" d="m58.33 11.06-27.98-10c-.2264785-.07998655-.4735215-.07998655-.7 0l-1.15.411 26.83 9.589c.3954845.1435417.6588256.5192718.6588256.94s-.2633411.7964583-.6588256.94l-6.4 2.29c-.2859132-.1531674-.605652-.2322426-.93-.23-.801524.0040745-1.5242544.4832762-1.84 1.22l-2.16.77v1.07l5.16-1.84c.3157456-.7367238 1.038476-1.2159255 1.84-1.22.324348-.0022426.6440868.0768326.93.23l6.4-2.29c.3954845-.1435417.6588256-.5192718.6588256-.94s-.2633411-.7964583-.6588256-.94z" fill="#a4c2f7"/><path id="Shape" d="m5 42c0 5.28-.82 9.61-1.86 9.97l-.14.03c-1.1 0-2-4.48-2-10s.9-10 2-10c.03961223.0088147.07967016.015491.12.02h.01c1.04.35 1.87 4.68 1.87 9.98z" fill="#e8edfc"/><path id="Shape" d="m5 42c0 5.28-.82 9.61-1.86 9.97l-.14.03c-1.1 0-2-4.48-2-10s.9-10 2-10c.03961223.0088147.07967016.015491.12.02h.01c1.04.35 1.87 4.68 1.87 9.98z" fill="#e8edfc"/><path id="Shape" d="m59 42c0 5.52-.9 10-2 10-6.7112284-1.0725403-13.4859779-1.7005743-20.28-1.88l-.49-1.18c1.3819409-2.454038.8656032-5.5395726-1.24-7.41.0796303-2.5682892-.2926989-5.1305912-1.1-7.57 7.7404735-.0961258 15.4638975-.7511631 23.11-1.96 1.1 0 2 4.48 2 10z" fill="#e8edfc"/><path id="Shape" d="m57 32s-.87.157-2.459.383c.839 1.184 1.459 5.038 1.459 9.617s-.62 8.432-1.459 9.617c1.586.225 2.459.383 2.459.383 1.1 0 2-4.48 2-10s-.9-10-2-10z" fill="#cad9fc"/><path id="Shape" d="m25.99 42.7c-1.2350758 1.8750034-1.3199616 4.2826716-.22 6.24l-.47 1.12c-7.4216238.1297297-14.8256345.7678913-22.16 1.91 1.04-.36 1.86-4.69 1.86-9.97 0-5.3-.83-9.63-1.87-9.98 7.1976756 1.1342429 14.4648019 1.7724135 21.75 1.91.8514163 2.6017267 1.2307196 5.3347427 1.12 8.07 0 .24 0 .47-.01.7z" fill="#e8edfc"/><path id="Shape" d="m26 42c.1107196-2.7352573-.2685837-5.4682733-1.12-8.07-7.2851981-.1375865-14.5523244-.7757571-21.75-1.91.22660722.111169.4080893.296888.514.526 6.0506811.7760053 12.1375086 1.237958 18.236 1.384.8514163 2.6017267 1.2307196 5.3347427 1.12 8.07 0 .24 0 .47-.01.7-1.2350758 1.8750034-1.3199616 4.2826716-.22 6.24l-.47 1.12c-6.2380686.137377-12.46463033.6020159-18.654 1.392-.10537097.2248256-.28370542.4073893-.506.518 7.3343655-1.1421087 14.7383762-1.7802703 22.16-1.91l.47-1.12c-1.0999616-1.9573284-1.0150758-4.3649966.22-6.24.01-.23.01-.46.01-.7z" fill="#cad9fc"/><path id="Shape" d="m34.99 41.53c-1.0909501-.992513-2.515151-1.5386351-3.99-1.53-2.0173479.0019595-3.8990994 1.0160771-5.01 2.7.01-.23.01-.46.01-.7.1107196-2.7352573-.2685837-5.4682733-1.12-8.07 1.64.05 3.35.07 5.12.07 1.33 0 2.63-.01 3.89-.04.8073011 2.4394088 1.1796303 5.0017108 1.1 7.57z" fill="#e8edfc"/><g fill="#cad9fc"><path id="Shape" d="m31.947 40.088c1.1340722.1709472 2.192551.6725332 3.043 1.442.0796303-2.5682892-.2926989-5.1305912-1.1-7.57-.971.023-1.972.032-2.986.036.6720794 1.9616024 1.0242444 4.0185432 1.043 6.092z"/><path id="Shape" d="m27 34c.59 0 1.171 0 1.748-.008-1.323-.008-2.622-.024-3.868-.062.008.017.014.04.022.057.692.007 1.386.013 2.098.013z"/><path id="Shape" d="m37 46c0 3.3137085-2.6862915 6-6 6s-6-2.6862915-6-6 2.6862915-6 6-6c1.474849-.0086351 2.8990499.537487 3.99 1.53 1.2798799 1.1329139 2.0118537 2.7607361 2.01 4.47z"/></g><path id="Shape" d="m34.99 41.53c-1.0909501-.992513-2.515151-1.5386351-3.99-1.53-.5181693-.0000966-1.034155.0671328-1.535.2.9390775.2267094 1.8068777.6838081 2.525 1.33 1.6520709 1.4708136 2.3585858 3.7326892 1.8373953 5.8823383s-2.1851597 3.836792-4.3273953 4.3876617c2.6772691.6930117 5.4810025-.5365751 6.7847594-2.9754792 1.3037569-2.438904.7687107-5.4532912-1.2947594-7.2945208z" fill="#a4c2f7"/><path id="Shape" d="m31 52-2.66 6.37c-.147908.3777222-.5093466.6286703-.9149419.6352475-.4055954.0065773-.7749806-.2325197-.9350581-.6052475l-.73-1.68-1.68.72c-.3695259.1620183-.800349.0843318-1.0900103-.1965519s-.380564-.7091131-.2299897-1.0834481l2.54-6.1.47-1.12c1.0624002 1.8900368 3.0618364 3.0598791 5.23 3.06z" fill="#e8edfc"/><path id="Shape" d="m22.76 56.72-.049.021c.041678.1874643.1364535.358963.273.494z" fill="#cad9fc"/><path id="Shape" d="m25.77 48.94-.47 1.12-.437 1.049c.9425202.5828128 2.0288416.89136 3.137.891l-2.1 5.036.59 1.364c.1600775.3727278.5294627.6118248.9350581.6052475.4055953-.0065772.7670339-.2575253.9149419-.6352475l2.66-6.37c-2.1681636-.0001209-4.1675998-1.1699632-5.23-3.06z" fill="#cad9fc"/><path id="Shape" d="m37.92 57.44-1.68-.72-.73 1.68c-.1600775.3727278-.5294627.6118248-.9350581.6052475-.4055953-.0065772-.7670339-.2575253-.9149419-.6352475l-2.66-6.37c2.1681636-.0001209 4.1675998-1.1699632 5.23-3.06l.49 1.18 2.52 6.04c.1505743.374335.0596716.8025644-.2299897 1.0834481s-.7204844.3585702-1.0900103.1965519z" fill="#e8edfc"/><path id="Shape" d="m39.24 56.16-2.52-6.04-.49-1.18c-.5042778.8905233-1.2269757 1.6379995-2.1 2.172l2.11 5.048c.0743472.1843423.0914228.3868097.049.581l1.631.7c.3697462.1623523.8009853.0846238 1.0907781-.1966069.2897927-.2812307.3804156-.7099455.2292219-1.0843931z" fill="#cad9fc"/><ellipse id="Oval" cx="30" cy="25" fill="#7facfa" rx="14" ry="3"/><path id="Shape" d="m44 14v11c0-1.66-6.27-3-14-3s-14 1.34-14 3v-11c0-1.66 6.27-3 14-3s14 1.34 14 3z" fill="#a4c2f7"/><path id="Shape" d="m30 11c-.5073333 0-1.0073333.006-1.5.018 7.025.16 12.5 1.431 12.5 2.982v9.147c1.873.51 3 1.152 3 1.853v-11c0-1.66-6.27-3-14-3z" fill="#7facfa"/><path id="Shape" d="m53 17v3c0 .5522847-.4477153 1-1 1h-2c-.5522847 0-1-.4477153-1-1v-3c0-1.1045695.8954305-2 2-2 .324348-.0022426.6440868.0768326.93.23.6566204.3466488 1.0682059 1.0274957 1.07 1.77z" fill="#e8edfc"/><path id="Shape" d="m3 52 .14-.03c.3-.052 1.1-.184 2.316-.357-.837-1.189-1.456-5.04-1.456-9.613s.62-8.431 1.458-9.616c-1.232-.176-2.037-.312-2.328-.364h-.01c-.04032984-.004509-.08038777-.0111853-.12-.02-1.1 0-2 4.48-2 10s.9 10 2 10z" fill="#fff"/><path id="Rectangle-path" d="m1.434 8.714h8v2h-8z" fill="#fff" transform="matrix(.942 -.337 .337 .942 -2.952 2.395)"/><path id="Shape" d="m58.67 10.12-27.99-10c-.4426505-.1600088-.9273495-.1600088-1.37 0l-20.45 7.31c-.24969391.08653391-.45402995.26995882-.56691484.5088985-.11288488.23893968-.12480994.51326742-.03308516.7611015.08826044.25106427.27295545.45659189.51319561.57108134.24024017.11448946.51620695.12849597.76680439.03891866l20.45-7.31 20.01 7.14v5.04c-.6335097.2268112-1.1723743.6600161-1.53 1.23l-3.47 1.23v-2.64c0-3.89-13.46-4-15-4s-15 .11-15 4v2.64l-12.99-4.64c.345673-.1140821.60205137-.4069886.66935586-.764724.06730448-.3577355-.06509722-.7237872-.34567602-.9556925-.2805788-.2319054-.66501079-.29302942-1.00367984-.1595835-.79675228.2816422-1.329443 1.034934-1.329443 1.88s.53269072 1.5983578 1.329443 1.88l13.67 4.89v6.23c0 3.89 13.46 4 15 4s15-.11 15-4v-6.23l3-1.07v2.3c.0032948 1.1032019.8967981 1.9967052 2 2h2c1.1032019-.0032948 1.9967052-.8967981 2-2v-3c-.0000747-.4635888-.1133559-.9201465-.33-1.33l5-1.79c.7967523-.2816422 1.329443-1.034934 1.329443-1.88s-.5326907-1.5983578-1.329443-1.88zm-28.67 16.88c-7.4 0-12.05-1.22-12.92-2 .87-.78 5.52-2 12.92-2s12.05 1.22 12.92 2c-.87.78-5.52 2-12.92 2zm13-4.2c-3.81-1.73-11.84-1.8-13-1.8s-9.19.07-13 1.8v-8.71c.6-.77 5.32-2.09 13-2.09s12.4 1.32 13 2.09zm9-2.8h-2v-3c0-.5522847.4477153-1 1-1s1 .4477153 1 1zm0-5.86v-4.28l6 2.14z" fill="#4590ff"/><path id="Shape" d="m5.454 10.714c-.35726559.0017863-.6883456-.187162-.8685254-.4956699-.1801798-.30850789-.18208579-.68970573-.005-.99999997s.50625981-.5025438.8635254-.50433013h.01c.55228475 0 1 .44771525 1 1 0 .5522847-.44771525 1-1 1z" fill="#4590ff"/><path id="Shape" d="m57 31c-.0600315-.0001773-.1199516.0051787-.179.016-8.8726728 1.3794293-17.8419311 2.0429022-26.821 1.984-8.9790689.0589022-17.9483272-.6045707-26.821-1.984-.05914563-.0100897-.11900255-.01544-.179-.016-.7 0-3 .793-3 11s2.3 11 3 11c.06004793-.0012711.11990124-.0072899.179-.018 6.81770028-1.0799035 13.6994144-1.7072753 20.6-1.878l-1.952 4.682c-.2998992.7496857-.1175748 1.6062533.4616424 2.168815s1.4407385.7198238 2.1813576.398185l.765-.327.331.761c.3126556.7378909 1.0376093 1.2160686 1.839 1.213h.025c.8073899-.0062972 1.5312063-.4991084 1.833-1.248l1.737-4.158 1.731 4.142c.2991288.7559362 1.0260752 1.2555882 1.839 1.264h.03c.7959636.0032667 1.5169852-.4690182 1.832-1.2l.334-.767.753.323c.7438278.3283499 1.6125382.1719295 2.195116-.3952535.5825777-.5671831.7622009-1.4313941.453884-2.1837465l-1.914-4.59c6.2216086.2202879 12.4238858.8214132 18.572 1.8.0574962.0095142.1157284.0138649.174.013.7 0 3-.793 3-11s-2.3-11-3-11zm-27 4c1.093 0 2.154-.012 3.2-.03.4152824 1.5269614.6571423 3.0958635.721 4.677-2.2674172-1.0543305-4.9267377-.8071562-6.961.647-.0511494-1.7957543-.2812886-3.5819291-.687-5.332 1.2113333.0253333 2.4536667.038 3.727.038zm-27 15.5c-.76621595-2.7654906-1.10347504-5.6321928-1-8.5-.10347504-2.8678072.23378405-5.7345094 1-8.5.76621595 2.7654906 1.10347504 5.6321928 1 8.5.10347504 2.8678072-.23378405 5.7345094-1 8.5zm2.02.174c.547-1.59.98-4.244.98-8.674s-.433-7.084-.981-8.672c6.3545916.8776191 12.7525318 1.4060792 19.165 1.583.5997869 2.3136583.8744249 4.6995763.816 7.089 0 .145 0 .283-.006.422-1.2000273 1.9915849-1.3209621 4.4523451-.322 6.552l-.044.106c-6.5607744.16081-13.1072151.6923244-19.608 1.592zm22.387 7.326-.73-1.68c-.219556-.5044532-.80536-.7368087-1.311-.52l-1.683.744 2.345-5.622c.9627521.9755678 2.1909675 1.6467048 3.532 1.93zm3.593-7c-2.7614237 0-5-2.2385763-5-5s2.2385763-5 5-5 5 2.2385763 5 5c-.0033061 2.7600532-2.2399468 4.9966939-5 5zm7.314 5.518-1.68-.72c-.50564-.2168087-1.091444.0155468-1.311.52l-.74 1.663-2.144-5.131c1.342076-.2834163 2.5713104-.9548878 3.535-1.931zm18.486-5.568c-6.4246827-.9887912-12.9030696-1.5898786-19.4-1.8l-.071-.172c1.2576047-2.6500536.718457-5.8041476-1.348-7.886-.0077336-2.0738531-.24722-4.1403459-.714-6.161 7.2107886-.1614607 14.4035315-.7901117 21.533-1.882.464.788 1.2 3.905 1.2 8.951s-.741 8.162-1.2 8.95z" fill="#4590ff"/></g></g></svg>