<svg height="60" viewBox="0 0 60 60" width="60" xmlns="http://www.w3.org/2000/svg"><g id="Page-1" fill="none" fill-rule="evenodd"><g id="007---UFO" fill-rule="nonzero"><path id="Shape" d="m14.92 28.68.88 3.52c.1452558.5504413.5104861 1.0169236 1.01 1.29 6.09 3.336 20.19 3.41 26.38 0 .4995139-.2730764.8647442-.7395587 1.01-1.29l.88-3.52" fill="#9bb9ee"/><path id="Shape" d="m59 17c0 4.97-12.98 9-29 9s-29-4.03-29-9c0-3.57 6.69-6.65 16.4-8.1-.9243138 1.9004687-1.4031161 3.9866786-1.4 6.1 3 2 8 3 14 3s11-1 14-3c.0052338-2.1135592-.4736767-4.2002408-1.4-6.1 9.71 1.45 16.4 4.53 16.4 8.1z" fill="#dfe4f3"/><path id="Shape" d="m42.6 8.9c.09.184.158.381.24.569 7.924 1.603 13.16 4.374 13.16 7.531 0 4.814-12.178 8.746-27.5 8.988.4973333.008.9973333.012 1.5.012 16.02 0 29-4.03 29-9 0-3.57-6.69-6.65-16.4-8.1z" fill="#c1d0f3"/><path id="Shape" d="m14.161 9.469c-.5820535 1.3345538-.9531492 2.7514646-1.1 4.2-.0869916.8190265.3347377 1.6081835 1.064 1.991 3.054 1.559 7.575 2.34 12.875 2.34.511 0 1-.017 1.5-.032-5.326-.156-9.756-1.138-12.5-2.968-.0031161-2.1133214.4756862-4.1995313 1.4-6.1-1.124.168-2.2.36-3.239.569z" fill="#c1d0f3"/><path id="Shape" d="m59 17v4c0 3.26-5.57 6.11-13.92 7.68-9.9762161 1.7610051-20.1837839 1.7610051-30.16 0-8.35-1.57-13.92-4.42-13.92-7.68v-4c0 4.97 12.98 9 29 9s29-4.03 29-9z" fill="#9bb9ee"/><ellipse id="Oval" cx="30" cy="15" fill="#c1d0f3" rx="14" ry="3"/><path id="Shape" d="m44 15c-3-2-8-3-14-3s-11 1-14 3c0-7.7319865 6.2680135-14 14-14s14 6.2680135 14 14z" fill="#fff"/><path id="Shape" d="m39.6 8.9c.7076265 1.4538976 1.1531247 3.021266 1.316 4.63 1.0848194.3606171 2.1207259.8543858 3.0840424 1.47.0051914-2.1135592-.4737191-4.2002408-1.4000424-6.1-2.55296-5.34449894-8.2150904-8.48115858-14.1-7.811 4.7986915.5172133 8.9929883 3.4687135 11.1 7.811z" fill="#dfe4f3"/><path id="Shape" d="m14.92 28.68.88 3.52c.1452558.5504413.5104861 1.0169236 1.01 1.29 3.374 1.847 9.2 2.69 14.782 2.5-4.585-.147-9.011-.982-11.782-2.5-.4995139-.2730764-.8647442-.7395587-1.01-1.29l-.88-3.52c-8.35-1.57-13.92-4.42-13.92-7.68v-4c0-3.157 5.236-5.928 13.161-7.531 1.11-.222 2.106-.4 3.239-.569 2.1035516-4.33469161 6.2874536-7.28385713 11.077-7.808-.9895531-.10505153-1.9874469-.10505153-2.977 0-4.7980509.51660871-8.992204 3.46687422-11.1 7.808-1.133.169-2.129.347-3.239.569-7.925 1.603-13.161 4.374-13.161 7.531v4c0 3.26 5.57 6.11 13.92 7.68z" fill="#fff"/><path id="Shape" d="m10.847 26.719-.539 1.926c-2.70789731-.6812636-5.28345281-1.8086817-7.621-3.336l1.183-1.609c2.145643 1.3797524 4.50237753 2.3995291 6.977 3.019z" fill="#fff"/><g fill="#428dff"><path id="Shape" d="m6.411 27.314c.24668534.1083456.52709614.1103502.77530524.0055424.24820909-.1048078.44231975-.307182.53669476-.5595424.19350152-.5046484-.04898868-1.0717267-.54753567-1.2804459-.49854698-.2087192-1.07271945.0164591-1.29646433.5084459-.11439426.245322-.12211322.5270583-.02132306.7782759.10079017.2512176.30109343.449494.55332306.5477241z"/><path id="Shape" d="m43.253 7.994c-2.5966815-4.91184774-7.697012-7.98471197-13.253-7.98471197s-10.6563185 3.07286423-13.253 7.98471197c-10.493 1.643-16.747 4.994-16.747 9.006v4c0 1.551.9 3 2.687 4.309.28595967.2350216.67835041.2928628 1.01996142.1503497s.57656002-.4620676.61071503-.8306344-.1380712-.7258541-.44767645-.9287153c-.853-.629-1.87-1.606-1.87-2.7v-.217c9.427 8.26 46.572 8.261 56 0 0 3.927-9.158 6.173-13.016 6.91-4.9392464.9294434-9.9584264 1.3672483-14.984 1.307-6.4561873.0725525-12.8944309-.6942011-19.153-2.281-.5263542-.1462607-1.07267437.1569537-1.227.681-.07703852.2570261-.04755272.5342293.08182945.7692987.12938218.2350693.34780505.4082816.60617055.4807013 1.257.342 2.524.626 3.793.883.911 3.642.654 4.194 3.344 5.381l-4.531 16.826c-.143594.5335071.1724929 1.082406.706 1.226s1.082406-.1724929 1.226-.706l4.482-16.651c.634.2 1.309.377 2.014.535l-.385 1.626c-.0972398.3528595.0060649.7306514.269324.9849349.2632591.2542834.6444058.3444261.9936813.2350094.3492756-.1094167.6108686-.4009088.6819947-.7599443l.406-1.715c.689.107 1.4.2 2.138.27l-2.505 16.061c-.0850519.5459335.2885665 1.0574481.8345 1.1425s1.0574481-.2885665 1.1425-.8345l2.53-16.223c.506.025 1.026.039 1.552.049v7.02c0 .5522847.4477153 1 1 1s1-.4477153 1-1v-7.021c.524-.01 1.047-.022 1.552-.047l1.748 11.222c.0512434.3564205.2901529.6577686.6254891.7889596.3353361.1311911.7153107.0719643.9948114-.1550617.2795007-.2270259.4153624-.5867898.3556995-.9418979l-1.721-11.056c.737-.071 1.447-.163 2.136-.27l5.335 22.709c.0818138.3479767.3430562.6258733.6853198.7290088s.7135503.0158412.974-.229c.2604498-.2448412.370494-.6100321.2886802-.9580088l-5.316-22.622c.708-.157 1.377-.339 2.013-.54l1.783 6.65c.1430418.5335071.6914929.8500418 1.225.707s.8500418-.6914929.707-1.225l-1.831-6.826c2.628-1.161 2.411-1.658 3.339-5.369 8.073-1.598 14.106-4.488 14.106-8.546v-4c0-4.012-6.254-7.363-16.747-9.006zm-.022 23.959c-.0757984.2829894-.2650287.5221504-.523.661-1.5080197.7846146-3.1233395 1.3429344-4.794 1.657-4.998027.9286634-10.1200909.9746922-15.134.136-.01 0-.02 0-.031 0-1.8989165-.3076341-3.7378926-.9109533-5.45-1.788-.2596495-.1378227-.4510116-.3765731-.529-.66l-.508-2.032c9.1022944 1.426159 18.3709801 1.4285206 27.474.007zm-13.231-29.953c6.4992716.00867554 11.9962584 4.80994932 12.879 11.249-6.4-3.016-19.353-3.021-25.758 0 .8827416-6.43905068 6.3797284-11.24032446 12.879-11.249zm11.913 13.007c-5.845 2.67-17.975 2.673-23.826 0 5.869-2.69 17.955-2.69 23.826 0zm-11.913 9.993c-16.5 0-28-4.216-28-8 0-2.177 4.341-5.157 13.811-6.826-.5340698 1.5530755-.8080871 3.1836646-.811 4.826.0085158.3320737.1735193.6405746.445.832.211.082 3.976 3.168 14.555 3.168 6.352 0 11.344-1.078 14.459-3.112.3286905-.1752856.5359763-.5155255.541-.888-.0029129-1.6423354-.2769302-3.2729245-.811-4.826 9.47 1.669 13.811 4.649 13.811 6.826 0 3.784-11.5 8-28 8z"/><path id="Shape" d="m51.261 14.063c-.616-.229-1.281-.45-1.975-.658-.5245224-.1446791-1.0684615.1565654-1.2241112.6779376-.1556498.5213722.1341186 1.0715105.6521112 1.2380624.6793333.2 1.2956667.4056667 1.849.617.1118233.0408769.2299397.0618604.349.062.4837619-.0001593.8980432-.3465838.983824-.8226796s-.1815391-.9453282-.634824-1.1143204z"/><path id="Shape" d="m11.87 14.077c-.1580554-.5290058-.7149247-.8298227-1.244-.672-.694.208-1.358.429-1.975.658-.45328491.1689922-.72060479.6382246-.63482398 1.1143204s.50006212.8225203.98382398.8226796c.11906025-.0001396.23717675-.0211231.349-.062.554-.2073333 1.1703333-.413 1.849-.617.5290058-.1580554.8298227-.7149247.672-1.244z"/><path id="Shape" d="m31 21h-.011c-.652.006-1.326.006-1.978 0h-.011c-.5522847-.0030376-1.0024624.4422153-1.0055.9945s.4422153 1.0024624.9945 1.0055h1.011 1.011c.5522847-.0030376.9975376-.4532153.9945-1.0055s-.4532153-.9975376-1.0055-.9945z"/><path id="Shape" d="m25.055 20.867c-.6753333-.0373333-1.334-.0816667-1.976-.133-.5492366-.0387573-1.0286788.3687019-1.079.917-.0212645.2645932.0635433.5267846.2357367.7288024.1721935.2020178.4176421.3272841.6822633.3481976.6573333.052 1.332.0973333 2.024.136h.058c.5522847.0149117 1.0120883-.4207153 1.027-.973s-.4207153-1.0120883-.973-1.027z"/><path id="Shape" d="m19.135 20.313c-.6853333-.092-1.345-.192-1.979-.3-.3550211-.0655356-.7178032.0653739-.9491724.3425077-.2313692.2771339-.2953998.6574604-.1675278.995075s.4277914.5800945.7847002.6344173c.6546667.11 1.335.213 2.041.309.0448238.004905.0899177.0069091.135.006.5262731.0000727.9625413-.4077638.997881-.932849.0353398-.5250853-.3423444-.9877031-.863881-1.058151z"/><path id="Shape" d="m13.24 19.211c-.7-.172-1.347-.351-1.953-.532-.5290888-.1585057-1.0864943.1419112-1.245.671-.15850571.5290888.1419112 1.0864943.671 1.245.6353333.19 1.3176667.3756667 2.047.557.3500481.095166.724183-.0066979.9776713-.2661858.2534882-.2594879.3465738-.6359029.2432468-.9836295s-.3868613-.6122289-.7409181-.6911847z"/><path id="Shape" d="m7.244 17.113c-.46693129-.2258477-.90367652-.5093962-1.3-.844-.26276884-.242762-.63508924-.3268978-.97671169-.2207143-.34162246.1061835-.6006464.3865545-.67950001.7355s.03444285.7134523.2972117.9562143c.52717961.4545908 1.11022354.8400383 1.735 1.147.31689458.1650567.69777395.1485142.99916455-.0433962.30139059-.1919105.477504-.5300329.462-.8870001-.01550399-.3569671-.22026996-.678547-.53716455-.8436037z"/><path id="Shape" d="m36.921 20.734c-.642.0506667-1.3006667.095-1.976.133-.5522847.0149117-.9879117.4747153-.973 1.027s.4747153.9879117 1.027.973h.056c.692-.038 1.3666667-.0833333 2.024-.136.2657233-.020136.5124186-.1454993.685334-.3482665.1729155-.2027673.2577466-.4661648.235666-.7317335-.0498096-.5485636-.5295838-.956305-1.079-.917z"/><path id="Shape" d="m42.844 20.014c-.634.1066667-1.2936667.2066667-1.979.3-.5077562.0845225-.8684038.5406879-.8334943 1.0542458.0349096.513558.4539707.916722.9684943.9317542.0454796-.0000766.090907-.0030828.136-.009.706-.096 1.3863333-.199 2.041-.309.5370706-.0991413.895264-.6108408.8045928-1.1494061s-.5966664-.9047726-1.1365928-.8225939z"/><path id="Shape" d="m48.713 18.679c-.606.181-1.257.36-1.953.532-.3540568.0789558-.6375911.3434581-.7409181.6911847s-.0102414.7241416.2432468.9836295c.2534883.2594879.6276232.3613518.9776713.2661858.73-.18 1.4123333-.3656667 2.047-.557.5290888-.1585057.8295057-.7159112.671-1.245-.1585058-.5290888-.7159112-.8295057-1.245-.671z"/><path id="Shape" d="m54.06 16.269c-.3963235.3346038-.8330687.6181523-1.3.844-.4898766.2551556-.6801555.8591234-.425 1.349.2551556.4898765.8591234.6801555 1.349.425.6247765-.3069617 1.2078204-.6924092 1.735-1.147.4023871-.374984.4264039-1.0045392.0537552-1.40909-.3726487-.4045507-1.0020544-.432211-1.4087552-.06191z"/><path id="Shape" d="m22 10.006c.3147573 0 .6111456-.14819416.8-.4 1.6910906-2.27728144 4.363505-3.61571563 7.2-3.606.5522847 0 1-.44771525 1-1s-.4477153-1-1-1c-3.4610857.01111098-6.7174735 1.64152516-8.8 4.406-.2272632.30301765-.2638192.70842957-.0944272 1.0472136.169392.33878402.5156551.5527864.8944272.5527864z"/><path id="Shape" d="m12 60c.4519249-.0002751.8474996-.3036173.965-.74l.807-3c.098831-.3469142.0031685-.7201684-.250342-.9767799-.2535106-.2566115-.6255742-.3568047-.9736643-.2621986-.3480901.0946062-.6182516.3693474-.7069937.7189785l-.808 3c-.0690611.2562027-.0334647.5293493.0989513.7592956.1324161.2299462.3507938.397837.6070487.4667044.0851708.0225358.1728982.0339638.261.034z"/><path id="Shape" d="m17 60c.4639072-.0001978.8667653-.3194204.973-.771l3.993-17c.0818138-.3477981-.0281351-.7128239-.2884302-.9575757-.260295-.2447519-.6313911-.3320462-.9735-.229-.3421088.1030461-.603256.3807776-.6850698.7285757l-3.994 17c-.1249124.5369763.2083361 1.0737523.745 1.2.0753059.0184275.1524768.0281577.23.029z"/><path id="Shape" d="m23 60c.4924203-.0005274.9111675-.3594535.987-.846l.312-2c.0850519-.5459335-.2885665-1.0574481-.8345-1.1425s-1.0574481.2885665-1.1425.8345l-.311 2c-.0850112.5456475.2883644 1.0569124.834 1.142.0512866.0079334.1031034.0119451.155.012z"/><path id="Shape" d="m48 60c.0881018-.0000362.1758292-.0114642.261-.034.2562549-.0688674.4746326-.2367582.6070487-.4667044.132416-.2299463.1680124-.5030929.0989513-.7592956l-3.5-13c-.1435941-.533507-.6924929-.849594-1.226-.7059999-.533507.143594-.849594.6924928-.706 1.2259999l3.5 13c.1175004.4363827.5130751.7397249.965.74z"/><path id="Shape" d="m37 60c.0518966-.0000549.1037134-.0040666.155-.012.5456356-.0850876.9190112-.5963525.834-1.142l-1.09-7c-.0512434-.3564205-.2901529-.6577686-.6254891-.7889596-.3353361-.1311911-.7153107-.0719643-.9948114.1550617-.2795007.2270259-.4153624.5867898-.3556995.9418979l1.09 7c.0758325.4865465.4945797.8454726.987.846z"/><path id="Shape" d="m31 59v-11c0-.5522847-.4477153-1-1-1s-1 .4477153-1 1v11c0 .5522847.4477153 1 1 1s1-.4477153 1-1z"/></g></g></g></svg>