<?xml version="1.0" encoding="iso-8859-1"?>
<!-- Generator: Adobe Illustrator 19.0.0, SVG Export Plug-In . SVG Version: 6.00 Build 0)  -->
<svg version="1.1" id="Capa_1" xmlns="http://www.w3.org/2000/svg" xmlns:xlink="http://www.w3.org/1999/xlink" x="0px" y="0px"
	 viewBox="0 0 512.003 512.003" style="enable-background:new 0 0 512.003 512.003;" xml:space="preserve">
<g>
	<g transform="translate(1 1)">
		<path style="fill:#E3E7F2;" d="M173.935,428.312V472.6c-0.079,16.462-13.405,29.788-29.867,29.867
			c-16.487-0.018-29.849-13.379-29.867-29.867v-98.133c0.768,1.28,1.621,2.475,2.475,3.67c0.683,1.024,1.365,2.048,2.133,2.987
			c0.162,0.184,0.305,0.384,0.427,0.597c0.768,1.024,1.536,2.048,2.389,3.072c0.894,1.252,1.863,2.449,2.901,3.584
			c0.53,0.739,1.13,1.425,1.792,2.048c0.235,0.303,0.491,0.588,0.768,0.853c0.427,0.597,0.939,1.109,1.451,1.707v0.085l0.085,0.085
			l0.683,0.683c0.171,0.256,0.427,0.427,0.597,0.683c0.085,0.085,0.171,0.085,0.171,0.171c0.374,0.476,0.773,0.932,1.195,1.365
			c1.621,1.792,3.328,3.499,5.12,5.12c0.242,0.299,0.53,0.558,0.853,0.768l0.683,0.683c0,0.085,0.085,0.171,0.171,0.085
			c0.427,0.513,0.939,0.939,1.365,1.365c1.284,1.284,2.653,2.481,4.096,3.584c0.248,0.175,0.477,0.375,0.683,0.597
			c0.101,0.158,0.251,0.278,0.427,0.341c2.219,1.792,4.437,3.584,6.741,5.376l0.085,0.085c2.304,1.707,4.608,3.328,6.912,4.864
			c0.085,0,0.085,0,0.085,0.085c2.304,1.536,4.693,2.987,6.997,4.437c0.15,0.142,0.323,0.258,0.512,0.341
			c1.28,0.768,2.56,1.536,3.925,2.304h0.085c0.54,0.363,1.111,0.677,1.707,0.939c0.13,0.104,0.274,0.19,0.427,0.256
			c0.586,0.28,1.156,0.594,1.707,0.939c0,0.023,0.009,0.044,0.025,0.06S173.912,428.313,173.935,428.312z"/>
		<path style="fill:#A4C2F7;" d="M368.751,231.107c1.043-3.31,1.533-6.77,1.451-10.24c0-25.6-25.6-59.733-51.2-59.733l3.925-51.2
			c2.924-8.224,4.48-16.872,4.608-25.6c0-19.968-15.616-39.851-42.667-47.701V24.6c-0.028-9.414-7.652-17.039-17.067-17.067
			c-9.385,0.097-16.97,7.681-17.067,17.067v8.96c-7.466,0.567-14.803,2.264-21.76,5.035l-3.84-9.643l-3.584-8.96
			c-2.762-7.003-10.534-10.607-17.664-8.192c-3.681,1.2-6.685,3.895-8.277,7.424c-1.521,3.074-1.826,6.609-0.853,9.899l8.107,28.331
			c-24.32,28.331-28.672,75.435-28.928,109.739v18.432c-5.461-2.048-11.179-4.523-17.067-7.424
			c-0.703-0.372-1.448-0.659-2.219-0.853c-0.085,0-0.085,0.085-0.171,0.085c-2.004-0.519-4.077-0.721-6.144-0.597
			c-4.537,0.236-8.992,1.306-13.141,3.157c-7.874,3.348-15.008,8.22-20.992,14.336v-0.171
			c-17.92,17.749-34.133,50.176-34.133,103.509c0,102.4,17.067,85.333,17.067,85.333c1.199,0.006,2.398-0.08,3.584-0.256
			c3.648,9.089,8.163,17.804,13.483,26.027c2.109,3.247,4.388,6.38,6.827,9.387c0.122,0.213,0.265,0.413,0.427,0.597
			c0,0.085,0.085,0.171,0.171,0.256c0.085,0.085,0.085,0.171,0.256,0.256c0.683,0.939,1.451,1.877,2.218,2.816
			c0.17,0.178,0.314,0.379,0.427,0.597l1.792,2.048c0.234,0.303,0.491,0.588,0.768,0.853c0.427,0.597,0.939,1.109,1.451,1.707v0.085
			l0.085,0.085c0.256,0.341,0.597,0.597,0.853,0.939c0.182,0.096,0.331,0.245,0.427,0.427h0.085c0,0.085,0.085,0.085,0.085,0.171
			c0.391,0.348,0.761,0.719,1.109,1.109l0.085,0.085v0.085l1.195,1.195c1.28,1.365,2.645,2.731,3.925,4.011
			c0.512,0.512,1.024,0.939,1.536,1.451c0.512,0.512,1.024,0.939,1.536,1.451c1.284,1.284,2.653,2.481,4.096,3.584
			c0.248,0.175,0.477,0.375,0.683,0.597c0.101,0.158,0.251,0.278,0.427,0.341c2.219,1.792,4.437,3.584,6.741,5.376l0.085,0.085
			c2.304,1.707,4.608,3.328,6.912,4.864c0.085,0,0.085,0,0.085,0.085c2.304,1.536,4.693,2.987,6.997,4.437
			c0.15,0.142,0.323,0.258,0.512,0.341c1.28,0.768,2.56,1.536,3.925,2.304h0.085c0.54,0.363,1.111,0.677,1.707,0.939
			c0.13,0.104,0.274,0.19,0.427,0.256c0.586,0.28,1.156,0.594,1.707,0.939c0,0.023,0.009,0.044,0.025,0.06
			c0.016,0.016,0.038,0.024,0.06,0.024v9.984c0.018,11.526,6.657,22.016,17.067,26.965c3.99,1.93,8.368,2.923,12.8,2.901
			c11.453,0.033,21.88-6.596,26.709-16.981h0.085c0.427-0.768,0.683-1.536,1.024-2.304c6.294,1.302,12.69,2.044,19.115,2.219
			c17.58-0.056,35.125,1.573,52.395,4.864c5.973,1.194,11.435,2.389,16.725,3.669c12.8,2.987,24.064,5.973,35.499,7.509
			c4.919,0.689,9.881,1.031,14.848,1.024c25.6,0,59.733-17.067,59.733-93.867C429.935,363.8,406.724,287.256,368.751,231.107z
			 M200.559,269.421h0.085l-0.085,0.085V269.421z M327.279,245.784c-0.576-0.073-1.147-0.187-1.707-0.341
			c0.597,0.085,1.109,0.171,1.707,0.256V245.784z"/>
		<path style="fill:#E3E7F2;" d="M351.94,244.845c-2.901-4.693-5.803-9.301-8.789-13.739c1.043-3.31,1.533-6.77,1.451-10.24
			c-1.318-18.374-9.882-35.472-23.808-47.531c-7.326-7.287-17.074-11.63-27.392-12.203l3.84-49.579l0.085-1.621
			c2.924-8.224,4.48-16.872,4.608-25.6c0-19.968-15.616-39.851-42.667-47.701V24.6c-0.006-4.123-1.524-8.1-4.267-11.179
			c-0.671,0.738-1.271,1.538-1.792,2.389c-0.42,0.684-0.791,1.397-1.109,2.133c-0.43,1.051-0.773,2.135-1.024,3.243
			c0.012,0.094-0.02,0.188-0.085,0.256c0.009,0.231-0.02,0.461-0.085,0.683c-0.1,0.821-0.157,1.647-0.171,2.475v8.96
			c-7.466,0.567-14.803,2.264-21.76,5.035l-3.84-9.643v4.608c-7.466,0.567-14.803,2.264-21.76,5.035l-7.424-18.603
			c-0.085-0.256-0.256-0.512-0.341-0.768c-0.401,0.789-0.715,1.619-0.939,2.475c-0.085,0.171-0.085,0.341-0.171,0.427
			c-0.51,2.316-0.422,4.724,0.256,6.997l8.107,28.331c-24.32,28.331-28.672,75.435-28.928,109.739v18.432
			c-5.461-2.048-11.179-4.523-17.067-7.424c-0.703-0.372-1.448-0.659-2.219-0.853c-0.085,0-0.085,0.085-0.171,0.085
			c-2.004-0.519-4.077-0.721-6.144-0.597v8.789c-4.267-1.621-8.619-3.413-13.141-5.632c-7.874,3.348-15.008,8.22-20.992,14.336
			v-0.171c-17.92,17.749-34.133,50.176-34.133,103.509c0,102.4,17.067,85.333,17.067,85.333c1.199,0.006,2.398-0.08,3.584-0.256
			c3.648,9.089,8.163,17.804,13.483,26.027c2.109,3.247,4.388,6.38,6.827,9.387c0.122,0.213,0.265,0.413,0.427,0.597
			c0,0.085,0.085,0.171,0.171,0.256c0.085,0.085,0.085,0.171,0.256,0.256c0.683,0.939,1.451,1.877,2.218,2.816
			c0.17,0.178,0.314,0.379,0.427,0.597l1.792,2.048c0.234,0.303,0.491,0.588,0.768,0.853c0.427,0.597,0.939,1.109,1.451,1.707v0.085
			l0.085,0.085c0.256,0.341,0.597,0.597,0.853,0.939c0.182,0.096,0.331,0.245,0.427,0.427h0.085c0,0.085,0.085,0.085,0.085,0.171
			c0.391,0.348,0.761,0.719,1.109,1.109l0.085,0.085v0.085l1.195,1.195c1.28,1.365,2.645,2.731,3.925,4.011
			c0.512,0.512,1.024,0.939,1.536,1.451c0.512,0.512,1.024,0.939,1.536,1.451c1.284,1.284,2.653,2.481,4.096,3.584
			c0.248,0.175,0.477,0.375,0.683,0.597c0.101,0.158,0.251,0.278,0.427,0.341c2.219,1.792,4.437,3.584,6.741,5.376l0.085,0.085
			c2.304,1.707,4.608,3.328,6.912,4.864c0.085,0,0.085,0,0.085,0.085c2.304,1.536,4.693,2.987,6.997,4.437
			c0.15,0.142,0.323,0.258,0.512,0.341c1.28,0.768,2.56,1.536,3.925,2.304h0.085c0.54,0.363,1.111,0.677,1.707,0.939
			c0.13,0.104,0.274,0.19,0.427,0.256c0.586,0.28,1.156,0.594,1.707,0.939c0,0.023,0.009,0.044,0.025,0.06
			c0.016,0.016,0.038,0.024,0.06,0.024v9.984c0.018,11.526,6.657,22.016,17.067,26.965c6.95-3.296,12.339-9.174,15.019-16.384
			c6.294,1.302,12.69,2.044,19.115,2.219c1.792,0,3.584,0,5.376,0.085h0.085c15.755,0.207,31.46,1.806,46.933,4.779
			c5.973,1.194,11.435,2.389,16.725,3.669c16.387,4.818,33.287,7.683,50.347,8.533c3.608-0.01,7.207-0.353,10.752-1.024
			c23.467-4.693,48.981-26.453,48.981-92.843C404.335,367.384,384.623,299.203,351.94,244.845z M174.959,269.507v-0.085h0.085
			L174.959,269.507z M301.679,245.784c-0.576-0.073-1.147-0.187-1.707-0.341c0.597,0.085,1.109,0.171,1.707,0.256V245.784z"/>
		<path style="fill:#A4C2F7;" d="M327.535,84.333c-0.128,8.728-1.684,17.376-4.608,25.6c-1.621,0-3.243,0-4.864,0.085h-2.389
			c-0.853,0-1.707,0-2.56,0.085c-1.365,0-2.816,0.085-4.267,0.171c-1.365,0.085-2.645,0.171-4.011,0.341
			c-1.195,0.085-2.389,0.171-3.584,0.341c-1.365,0.171-2.645,0.341-4.011,0.597l0.085-1.621c2.924-8.224,4.48-16.872,4.608-25.6
			c0-19.968-15.616-39.851-42.667-47.701V24.6c-0.006-4.123-1.524-8.1-4.267-11.179c3.203-3.737,7.878-5.888,12.8-5.888
			c9.414,0.028,17.039,7.652,17.067,17.067v12.032C311.919,44.483,327.535,64.365,327.535,84.333z"/>
		<g>
			<path style="fill:#E3E7F2;" d="M301.935,84.333c-0.128,8.728-1.684,17.376-4.608,25.6l-0.085,1.621
				c-4.379,0.589-8.694,1.588-12.885,2.987c-1.362,0.378-2.701,0.834-4.011,1.365c-0.321,0.089-0.635,0.203-0.939,0.341
				c-1.621,0.597-3.072,1.28-4.693,2.048c-0.427,0.171-0.939,0.427-1.451,0.683c-1.144,0.531-2.255,1.129-3.328,1.792
				c-1.147,0.62-2.258,1.304-3.328,2.048c-1.379,0.772-2.692,1.657-3.925,2.645c-4.289,2.974-8.289,6.345-11.947,10.069
				c-1.28,1.28-2.645,2.645-3.84,4.011c-0.22,0.177-0.42,0.378-0.597,0.597c-2.048,2.219-4.011,4.437-5.803,6.656
				c-1.365,1.536-2.56,3.072-3.755,4.608c-1.109,1.365-2.133,2.731-3.072,4.096c-1.024,1.365-2.048,2.731-2.987,4.096
				c-1.877,2.731-3.584,5.461-5.205,8.107c-0.853,1.28-1.621,2.645-2.304,3.925c0,0.085-0.085,0.171-0.171,0.256
				c-0.194,0.444-0.422,0.872-0.683,1.28c-1.707,3.413-3.243,6.656-4.523,9.728c-0.459,1.057-0.858,2.14-1.195,3.243
				c-0.746,2.082-1.317,4.223-1.707,6.4c-0.219,0.897-0.361,1.81-0.427,2.731l2.133,17.067
				c-0.768-0.341-17.579-17.664-18.432-18.005c-0.341-0.085-0.768-0.256-1.109-0.341l-2.048-0.768
				c-5.887-2.048-12.459-4.267-19.456-6.912c-0.128-0.021-0.247-0.081-0.341-0.171c-0.085,0-0.256-0.085-0.341-0.085
				c-0.32-0.126-0.633-0.269-0.939-0.427v-18.432c0.256-34.304,4.608-81.408,28.928-109.739l-8.107-28.331
				c-0.678-2.273-0.766-4.681-0.256-6.997c0.085-0.171,0.085-0.341,0.171-0.427c0.223-0.856,0.538-1.686,0.939-2.475
				c1.592-3.529,4.597-6.224,8.277-7.424c7.13-2.415,14.902,1.189,17.664,8.192l3.584,8.96l3.84,9.643
				c6.957-2.77,14.294-4.468,21.76-5.035V24.6c0.014-0.827,0.071-1.653,0.171-2.475c0.065-0.221,0.094-0.452,0.085-0.683
				c0.065-0.068,0.097-0.162,0.085-0.256c0.251-1.107,0.594-2.192,1.024-3.243c0.319-0.737,0.689-1.45,1.109-2.133
				c0.521-0.851,1.121-1.651,1.792-2.389c2.742,3.078,4.26,7.056,4.267,11.179v12.032C286.319,44.483,301.935,64.365,301.935,84.333
				z"/>
			<path style="fill:#E3E7F2;" d="M114.201,194.157V75.8c0-20.48-12.288-40.96-22.101-54.101c-2.047-2.66-2.402-6.254-0.915-9.263
				c1.487-3.01,4.556-4.911,7.913-4.902h33.451c11.242,0.023,21.618,6.04,27.221,15.787c9.273,15.936,14.161,34.043,14.165,52.48
				v119.467L114.201,194.157z"/>
			<path style="fill:#E3E7F2;" d="M379.503,137.667c-0.066,6.038-2.701,11.761-7.246,15.736s-10.569,5.824-16.562,5.085
				c-12.247-2.42-24.92-1.506-36.693,2.645l0.171,0.853l0.256,1.365l0.256,1.365l0.853,5.717c0.388,3.143,0.587,6.306,0.597,9.472
				v1.451c0.014,0.372-0.015,0.744-0.085,1.109v0.939c0,0.512-0.085,0.939-0.085,1.451c-0.015,0.601-0.072,1.199-0.171,1.792
				c-0.085,1.109-0.171,2.304-0.341,3.499c-0.085,0.597-0.171,1.195-0.256,1.707v0.085c-0.341,1.707-0.683,3.328-1.109,5.035
				l-0.256,0.512c-0.422,1.509-0.935,2.991-1.536,4.437c-0.175,0.506-0.404,0.993-0.683,1.451c-0.341,0.597-0.597,1.195-0.939,1.792
				c-0.341,0.597-0.597,1.109-0.939,1.621c-0.202,0.502-0.491,0.964-0.853,1.365l-0.512,0.768c-0.171,0.171-0.256,0.256-0.256,0.341
				l-0.256,0.256c-0.729,0.994-1.527,1.935-2.389,2.816c-0.645,0.639-1.244,1.324-1.792,2.048c-0.218,0.153-0.394,0.359-0.512,0.597
				l-0.256,0.256c-0.645,0.769-1.217,1.598-1.707,2.475c-0.021,0.128-0.081,0.247-0.171,0.341
				c-12.645,1.98-25.431,2.921-38.229,2.816c-1.621,0-3.413-0.085-5.205-0.256c-9.287-0.881-18.414-3.004-27.136-6.315
				c-1.195-0.427-2.304-0.853-3.413-1.365c-1.195-0.512-2.389-1.024-3.499-1.536c-0.527-0.192-1.041-0.42-1.536-0.683
				c-2.166-1.084-4.274-2.28-6.315-3.584c-0.085-0.085-0.085-0.085-0.171-0.085v-0.085h-0.085v-0.085
				c-1.44-1.747-3.104-3.296-4.949-4.608l-0.085-0.085c-0.932-2.177-1.257-4.566-0.939-6.912h0.085
				c0.085-0.853,0.171-1.792,0.341-2.731c0.39-2.177,0.961-4.318,1.707-6.4c0.337-1.103,0.735-2.185,1.195-3.243
				c1.28-3.072,2.816-6.315,4.523-9.728c0.26-0.408,0.489-0.836,0.683-1.28c0.085-0.085,0.171-0.171,0.171-0.256
				c0.683-1.28,1.451-2.645,2.304-3.925c1.621-2.645,3.328-5.376,5.205-8.107c0.939-1.365,1.963-2.731,2.987-4.096
				c0.939-1.365,1.963-2.731,3.072-4.096c1.195-1.536,2.389-3.072,3.755-4.608c1.792-2.219,3.755-4.437,5.803-6.656
				c0.177-0.22,0.378-0.42,0.597-0.597c1.195-1.365,2.56-2.731,3.84-4.011c3.657-3.724,7.657-7.095,11.947-10.069
				c1.254-0.96,2.565-1.843,3.925-2.645c1.07-0.744,2.181-1.428,3.328-2.048c1.073-0.663,2.184-1.261,3.328-1.792
				c0.512-0.256,1.024-0.512,1.451-0.683c1.621-0.768,3.072-1.451,4.693-2.048c0.304-0.138,0.617-0.252,0.939-0.341
				c1.31-0.531,2.649-0.987,4.011-1.365c5.496-1.763,11.157-2.964,16.896-3.584c1.195-0.171,2.389-0.256,3.584-0.341
				c1.365-0.171,2.645-0.256,4.011-0.341c1.451-0.085,2.901-0.171,4.267-0.171c0.853-0.085,1.707-0.085,2.56-0.085h2.389
				c1.621-0.085,3.243-0.085,4.864-0.085h4.608c12.968,0.639,25.754,3.317,37.888,7.936
				C373.811,120.853,379.437,128.764,379.503,137.667z"/>
		</g>
		<path style="fill:#A4C2F7;" d="M379.503,137.667c-0.066,6.038-2.701,11.761-7.246,15.736s-10.569,5.824-16.562,5.085
			c-4.443-0.606-8.915-0.976-13.397-1.109c5-1.874,9.112-5.56,11.52-10.325c1.492-2.905,2.281-6.121,2.304-9.387
			c-0.066-8.903-5.692-16.814-14.08-19.797c-10.322-3.827-21.065-6.406-32-7.68c1.024,0,2.048-0.085,3.072-0.085
			c0.853-0.085,1.707-0.085,2.56-0.085h2.389c1.621-0.085,3.243-0.085,4.864-0.085h4.608c12.968,0.639,25.754,3.317,37.888,7.936
			C373.811,120.853,379.437,128.764,379.503,137.667z"/>
		<g>
			<path style="fill:#E3E7F2;" d="M231.62,483.181c-5.085,13.483-19.088,21.396-33.261,18.796
				c-14.173-2.6-24.456-14.968-24.424-29.378l0-9.984c2.56,1.451,5.205,2.816,7.851,4.011h0.085
				c5.104,2.539,10.346,4.79,15.701,6.741l0.085,0.085c2.475,0.939,4.949,1.877,7.424,2.645c2.389,0.853,4.864,1.621,7.168,2.304
				c2.133,0.683,4.181,1.28,6.229,1.792c0.597,0.171,1.195,0.256,1.707,0.427c1.877,0.512,3.669,0.939,5.461,1.28
				C227.695,482.413,229.743,482.84,231.62,483.181z"/>
			<path style="fill:#E3E7F2;" d="M225.135,220.867c0,42.667-76.8,93.867-93.867,110.933c-2.077,2.11-3.857,4.493-5.291,7.083
				c-0.773,1.275-1.43,2.618-1.963,4.011c-2.498,6.247-4.551,12.663-6.144,19.2c-0.427,1.536-0.939,3.072-1.451,4.523
				c-0.075,0.353-0.19,0.697-0.341,1.024v0.085c-0.085,0.341-0.256,0.683-0.341,0.939c-0.493,1.408-1.092,2.778-1.792,4.096
				c-0.597,1.024-1.195,1.963-1.792,2.901c-0.643,0.908-1.356,1.764-2.133,2.56c-0.776,0.774-1.634,1.461-2.56,2.048
				c-1.503,0.936-3.144,1.627-4.864,2.048c-0.616,0.163-1.244,0.277-1.877,0.341v0.085c-1.186,0.176-2.385,0.262-3.584,0.256
				c0,0-17.067,17.067-17.067-85.333c0-53.333,16.213-85.76,34.133-103.509v0.171c15.104-14.933,31.403-19.371,40.277-16.896
				c0.085,0,0.085-0.085,0.171-0.085c0.771,0.195,1.516,0.481,2.219,0.853c5.888,2.901,11.605,5.376,17.067,7.424v0.085
				c0.341,0.085,0.597,0.256,0.939,0.341c0.085,0,0.256,0.085,0.341,0.085c0.094,0.09,0.213,0.15,0.341,0.171
				c6.997,2.645,13.568,4.864,19.456,6.912l2.048,0.768c0.341,0.085,0.768,0.256,1.109,0.341c0.853,0.341,1.707,0.597,2.475,0.939
				h0.085c5.131,1.758,10.054,4.076,14.677,6.912l0.085,0.085c1.845,1.312,3.509,2.861,4.949,4.608v0.085l0.085,0.085
				c0.597,0.853,1.28,1.707,1.877,2.645c0.085,0.085,0.085,0.171,0.171,0.256c0.557,0.976,1.014,2.005,1.365,3.072
				c0.414,1.189,0.7,2.42,0.853,3.67C225.041,218.065,225.155,219.465,225.135,220.867z"/>
		</g>
		<path style="fill:#A4C2F7;" d="M370.201,220.867c0.082,3.47-0.408,6.93-1.451,10.24c-0.256,0.597-0.427,1.195-0.683,1.792
			c-0.67,1.685-1.622,3.243-2.816,4.608c-0.512,0.597-1.024,1.109-1.536,1.621c-0.431,0.516-0.951,0.949-1.536,1.28
			c-1.739,1.259-3.632,2.292-5.632,3.072c-0.73,0.357-1.505,0.616-2.304,0.768c-0.742,0.289-1.515,0.489-2.304,0.597
			c-2.901-4.693-5.803-9.301-8.789-13.739c1.043-3.31,1.533-6.77,1.451-10.24c-1.318-18.374-9.882-35.472-23.808-47.531
			c0-1.024-0.171-1.963-0.256-2.901c-0.256-2.219-0.597-4.181-0.853-5.717l-0.256-1.365l-0.256-1.365l-0.171-0.853
			C344.601,161.133,370.201,195.267,370.201,220.867z"/>
		<path style="fill:#E3E7F2;" d="M351.94,244.845c-0.085,0.085-0.085,0.085-0.171,0.085c-2.277,0.521-4.586,0.891-6.912,1.109
			c-0.821,0.102-1.647,0.159-2.475,0.171c-0.853,0.085-1.792,0.171-2.731,0.171c-1.109,0.085-2.389,0.085-3.584,0.085
			c-9.8,0.461-19.428-2.698-27.051-8.875c-0.597-0.512-1.109-1.109-1.621-1.621c-0.933-1.128-1.735-2.359-2.389-3.669
			c-0.256-0.597-0.512-1.28-0.768-1.963c-0.232-0.631-0.376-1.292-0.427-1.963c-0.099-0.65-0.156-1.305-0.171-1.963
			c-0.025-0.715,0.033-1.431,0.171-2.133c0.06-0.697,0.203-1.385,0.427-2.048c0.171-0.512,0.341-0.939,0.512-1.451
			c0.07-0.205,0.155-0.405,0.256-0.597c0.254-0.75,0.598-1.466,1.024-2.133c0.09-0.094,0.149-0.213,0.171-0.341
			c0.49-0.877,1.061-1.705,1.707-2.475l0.256-0.256c0.118-0.239,0.294-0.444,0.512-0.597c0.548-0.724,1.147-1.409,1.792-2.048
			c0.862-0.881,1.661-1.822,2.389-2.816l0.256-0.256c0-0.085,0.085-0.171,0.256-0.341l0.512-0.768
			c0.363-0.401,0.651-0.864,0.853-1.365c0.341-0.512,0.597-1.024,0.939-1.621c0.341-0.597,0.597-1.195,0.939-1.792
			c0.278-0.458,0.507-0.944,0.683-1.451c0.601-1.447,1.114-2.929,1.536-4.437l0.256-0.512c0.427-1.707,0.768-3.328,1.109-5.035
			v-0.085c0.085-0.512,0.171-1.109,0.256-1.707c0.171-1.194,0.256-2.389,0.341-3.499c0.099-0.593,0.156-1.191,0.171-1.792
			c0-0.512,0.085-0.939,0.085-1.451v-0.939c0.071-0.365,0.099-0.738,0.085-1.109v-1.451c0.021-2.195-0.093-4.389-0.341-6.571
			c13.926,12.059,22.49,29.157,23.808,47.531c0.082,3.47-0.408,6.93-1.451,10.24C346.137,235.544,349.039,240.152,351.94,244.845z"
			/>
		<g>
			<polygon style="fill:#FFFFFF;" points="139.986,194.161 139.801,194.157 139.801,194.328 			"/>
			<path style="fill:#FFFFFF;" d="M114.201,194.157l0.184,0.004l-0.184,0.167V194.157c-17.92,17.749-34.133,50.176-34.133,103.509
				c0,102.4,17.067,85.333,17.067,85.333c1.199,0.006,2.398-0.08,3.584-0.256c3.648,9.089,8.163,17.804,13.483,26.027V472.6
				c0.018,16.487,13.379,29.848,29.867,29.867c4.435-0.025,8.808-1.05,12.791-2.999c-10.389-4.92-17.025-15.373-17.058-26.868
				v-63.829c-5.32-8.222-9.835-16.938-13.483-26.027c-1.186,0.176-2.385,0.262-3.584,0.256c0,0-17.067,17.067-17.067-85.333
				c0-53.333,16.213-85.76,34.133-103.509V75.8c0-20.48-12.288-40.96-22.101-54.101c-2.047-2.66-2.402-6.254-0.915-9.263
				c1.487-3.01,4.556-4.911,7.913-4.902h-25.6c-3.357-0.009-6.426,1.893-7.913,4.902c-1.487,3.01-1.132,6.603,0.915,9.263
				c9.813,13.141,22.101,33.621,22.101,54.101V194.157z"/>
		</g>
	</g>
	<g>
		<path style="fill:#FFFFFF;" d="M106.668,195.304V84.37l-0.028-8.243c-0.042-2.373-0.262-4.739-0.657-7.079
			c-0.846-4.888-2.221-9.669-4.101-14.259c-4.033-9.62-9.289-18.679-15.639-26.955l13.652-10.242
			c7.248,9.468,13.24,19.834,17.826,30.841c2.346,5.751,4.057,11.74,5.105,17.862c0.53,3.166,0.824,6.366,0.879,9.576l0.03,8.499
			v110.933H106.668z"/>
		<g>
			<path style="fill:#428DFF;" d="M106.668,191.831c-15.958,17.09-34.133,49.142-34.133,106.835c0,76.175,9.2,90.258,18.2,93.983
				c1.489,0.621,3.087,0.941,4.7,0.942c0.48-0.024,0.958-0.078,1.431-0.16c2.857,6.381,6.132,12.567,9.803,18.517V473.6
				c-0.069,16.319,10.226,30.883,25.633,36.263c15.407,5.38,32.53,0.39,42.634-12.425c7.702,9.832,19.746,15.25,32.213,14.492
				c12.467-0.759,23.764-7.598,30.217-18.292c4.755,0.758,9.556,1.191,14.37,1.296c25.239,0.083,50.359,3.468,74.721,10.067
				c14.576,4.141,29.602,6.491,44.746,7c20.525,0,68.267-9.975,68.267-102.4c0-42.711-21.251-119.394-60.598-179.18
				c0.569-2.816,0.858-5.681,0.865-8.554c-1.367-20.961-11.091-40.495-26.991-54.221c0.941,0.104,1.821,0.16,2.79,0.288
				c14.993,2.01,29.078-7.642,32.615-22.35c3.536-14.708-4.622-29.708-18.89-34.734c-11.039-4.122-22.555-6.832-34.274-8.063
				c1.318-5.726,2.016-11.578,2.083-17.454c0-23.175-16.896-44.175-42.667-53.833v-5.9c0-14.138-11.462-25.6-25.6-25.6
				s-25.6,11.462-25.6,25.6v1.467c-2.829,0.492-5.581,1.108-8.254,1.85l-4.45-11.117c-4.494-11.239-17.006-16.986-28.459-13.072
				s-17.832,16.117-14.507,27.755l6.867,24.041c-4.298,5.692-7.988,11.818-11.01,18.279c-0.346-19.246-5.573-38.088-15.19-54.763
				C161.044,7.68,147.863,0.048,133.581,0h-33.508c-6.585,0.006-12.6,3.738-15.53,9.636s-2.271,12.945,1.701,18.198l0.001,0.001
				l-0.001,0.001c6.349,8.276,11.605,17.335,15.639,26.955c1.879,4.591,3.254,9.372,4.101,14.259
				c0.395,2.34,0.615,4.706,0.657,7.079l0.028,8.243v8.533c0,4.713,3.821,8.533,8.533,8.533s8.533-3.821,8.533-8.533V84.37
				l-0.03-8.499c-0.055-3.209-0.349-6.41-0.879-9.576c-1.047-6.122-2.759-12.111-5.105-17.861
				c-4.306-10.349-9.88-20.124-16.593-29.101c-0.232-0.806-0.588-1.57-1.055-2.267h33.508c8.195,0.04,15.752,4.428,19.85,11.525
				c8.482,14.651,12.956,31.279,12.971,48.208v88.317c-4.322,1.401-8.179,2.837-11.769,4.383c-10.922-0.85-21.81,2.017-30.897,8.135
				V161.17c0-4.713-3.821-8.533-8.533-8.533s-8.533,3.821-8.533,8.533V191.831z M89.601,298.667
				c0-54.883,17.32-83.173,31.273-97.082c0.097-0.088,0.224-0.116,0.318-0.209c13.65-13.467,26.879-16.158,32-14.725
				c0.121,0.035,0.248,0.009,0.37,0.037c0.148,0.053,0.371,0.087,0.488,0.146c11.242,5.439,22.846,10.094,34.729,13.933
				c1.456,0.501,2.68,0.941,4.007,1.407c1.285,0.449,2.583,0.904,3.804,1.346c5.003,1.637,9.814,3.812,14.348,6.487
				c0.23,0.264,0.378,0.575,0.629,0.827c1.057,0.98,2.175,1.892,3.347,2.73c0.42,0.485,0.8,1.003,1.136,1.549
				c0.07,0.124,0.133,0.268,0.2,0.4c0.372,0.758,0.659,1.554,0.856,2.374c0.053,0.212,0.123,0.388,0.168,0.616
				c0.22,1.107,0.329,2.234,0.326,3.363c0,29.533-47.5,68.342-73.021,89.192c-8.05,6.575-14.408,11.767-18.346,15.708
				c-1.056,1.057-2.051,2.174-2.979,3.346c-0.085,0.108-0.152,0.224-0.236,0.332c-5.438,7.892-9.248,16.79-11.206,26.172
				c-0.953,3.76-2.124,7.462-3.508,11.085l-0.052,0.127c-1.936,4.629-4.095,6.858-7.778,7.413c-0.059,0.009-0.104,0.054-0.162,0.064
				c-0.722,0.104-1.45,0.158-2.179,0.162c-0.382,0-0.763,0.025-1.142,0.075C94.597,370.55,89.601,353.558,89.601,298.667z
				 M145.068,494.933c-11.777-0.012-21.321-9.556-21.333-21.333v-38.93c12.336,13.558,26.736,25.084,42.667,34.151v4.779
				C166.389,485.377,156.845,494.921,145.068,494.933z M204.801,494.933c-10.212-0.015-18.984-7.258-20.93-17.283
				c11.213,5.045,22.839,9.116,34.751,12.166C214.782,493.131,209.874,494.948,204.801,494.933z M234.448,475.875
				c-0.077-0.017-0.135-0.077-0.213-0.091c-19.301-3.783-37.926-10.437-55.254-19.742c-2.318-1.247-4.549-2.569-6.774-3.896
				c-0.956-0.572-1.911-1.123-2.865-1.719c-1.842-1.147-3.63-2.341-5.406-3.544c-1.451-0.984-2.894-2-4.329-3.047
				c-1.57-1.141-3.138-2.282-4.651-3.469c-1.79-1.401-3.541-2.898-5.293-4.398c-2.203-1.893-4.338-3.838-6.406-5.835
				c-1.406-1.352-2.807-2.711-4.176-4.135c-1.516-1.585-2.99-3.202-4.421-4.851c-1.004-1.145-1.975-2.342-2.952-3.531
				c-2.74-3.353-5.32-6.821-7.738-10.405c-4.107-5.959-7.739-12.232-10.86-18.761c0.169-0.11,0.299-0.257,0.465-0.371
				c1.056-0.712,2.052-1.508,2.979-2.381c0.503-0.482,0.949-1.006,1.408-1.524c0.653-0.725,1.267-1.484,1.841-2.274
				c0.383-0.534,0.766-1.061,1.116-1.618c0.598-0.951,1.142-1.937,1.654-2.945c0.486-0.954,0.933-1.916,1.354-2.901
				c0.326-0.766,0.658-1.527,0.951-2.307c0.401-1.064,0.764-2.116,1.11-3.183l0.2-0.618c0.779-2.456,1.484-4.892,2.105-7.175
				c1.371-6.167,3.551-12.126,6.483-17.721c0.983-1.671,2.167-3.214,3.526-4.596c3.333-3.333,9.7-8.533,17.075-14.558
				c1.836-1.5,3.734-3.052,5.667-4.639c3.303,12.666,5.102,25.677,5.358,38.764c-1.103,16.897,7.296,33.001,21.783,41.767
				c1.17,0.587,2.462,0.892,3.771,0.892c3.918-0.018,7.323-2.697,8.262-6.501c0.939-3.804-0.827-7.76-4.287-9.599
				c-6.661-4.426-11.014-11.58-11.883-19.53c5.432,1.052,10.955,1.557,16.488,1.505c4.713,0.002,8.535-3.816,8.538-8.529
				c0.002-4.713-3.816-8.535-8.529-8.538c-5.913,0.1-11.805-0.747-17.45-2.509c-0.026-0.083-0.085-0.148-0.113-0.23
				c-1.196-13.403-3.717-26.653-7.527-39.558l0.639-0.555c1.595-1.373,3.19-2.746,4.792-4.159c0.806-0.711,1.607-1.447,2.413-2.167
				c1.405-1.256,2.809-2.506,4.206-3.79c0.863-0.794,1.709-1.609,2.567-2.413c1.324-1.24,2.652-2.472,3.958-3.735
				c0.898-0.868,1.768-1.758,2.655-2.636c1.241-1.229,2.488-2.452,3.701-3.699c0.891-0.916,1.743-1.85,2.616-2.775l0.206-0.218
				c1.564,5.515,4.432,10.572,8.363,14.744c4.002,5.734,6.112,12.575,6.033,19.567c0,4.713,3.82,8.533,8.533,8.533
				s8.533-3.821,8.533-8.533c0-0.327-0.025-1.158-0.078-2.194c2.686,1.323,5.619,2.07,8.611,2.194
				c4.728,0.007,8.574-3.805,8.608-8.533c0.015-2.255-0.87-4.422-2.458-6.022c-1.588-1.6-3.749-2.501-6.004-2.503
				c-7.445-3.534-14.134-8.477-19.697-14.557l-0.015-0.018c-4.006-5.741-6.115-12.592-6.033-19.592l-0.019-0.092
				c0.731-0.991,1.391-1.993,2.086-2.99c0.862-1.236,1.741-2.469,2.544-3.713c0.687-1.065,1.296-2.136,1.936-3.206
				c0.739-1.235,1.496-2.468,2.169-3.709c0.591-1.091,1.096-2.186,1.632-3.28c0.602-1.229,1.221-2.454,1.749-3.686
				c0.476-1.109,0.857-2.22,1.269-3.331c0.455-1.224,0.926-2.448,1.299-3.675c0.341-1.117,0.58-2.234,0.851-3.352
				c0.295-1.223,0.606-2.446,0.813-3.669c0.19-1.123,0.273-2.243,0.384-3.364c0.091-0.916,0.278-1.834,0.315-2.749
				c0.667,0.24,1.378,0.423,2.055,0.654c0.996,0.336,1.988,0.641,2.997,0.954c1.867,0.581,3.714,1.132,5.611,1.627
				c0.771,0.2,1.524,0.364,2.293,0.548c2.028,0.488,4.03,0.951,6.035,1.323c0.894,0.167,1.734,0.268,2.612,0.41
				c1.76,0.282,3.518,0.578,5.212,0.754c2.442,0.275,4.897,0.422,7.354,0.439c4.372,0,8.586-0.117,12.719-0.292
				c1.24-0.053,2.443-0.129,3.661-0.197c3.025-0.169,5.976-0.387,8.854-0.653c0.695-0.065,1.452-0.087,2.137-0.158l0.009,0.047
				c0.142,1.521,0.441,3.023,0.893,4.482c0.068,0.223,0.14,0.445,0.215,0.667c0.171,0.509,0.283,1.026,0.492,1.529
				c0.279,0.672,0.703,1.279,1.042,1.925c0.155,0.296,0.23,0.607,0.399,0.9c0.107,0.185,0.262,0.347,0.374,0.53
				c0.525,0.842,1.099,1.654,1.718,2.43c0.39,0.498,0.785,0.989,1.214,1.465c0.667,0.737,1.371,1.44,2.109,2.106
				c0.516,0.469,1.052,0.919,1.607,1.361c0.773,0.614,1.567,1.205,2.414,1.765c0.651,0.432,1.332,0.832,2.024,1.23
				c0.859,0.494,1.721,0.979,2.64,1.42c0.797,0.384,1.634,0.721,2.473,1.064c0.909,0.371,1.806,0.747,2.762,1.068
				c0.973,0.328,1.994,0.591,3.011,0.865c0.908,0.244,1.794,0.514,2.735,0.714c0.478,0.102,0.968,0.181,1.454,0.272
				c-7.49,22.462-12.287,45.734-14.288,69.327c0.007,1.985,0.14,3.967,0.398,5.935c-1.453,4.29-8.459,19.665-17.465,19.665
				c-4.713,0-8.533,3.82-8.533,8.533s3.82,8.533,8.533,8.533c10.249-0.513,19.6-6.004,25.042-14.704
				c1.942,3.676,4.023,7.199,6.042,10.562c6.467,8.691,10.469,18.966,11.583,29.742c-0.761,17.359-6.764,34.079-17.217,47.958
				c-9.021,12.347-14.763,26.78-16.69,41.95c-16.964-3.109-34.18-4.64-51.427-4.575
				C245.926,477.701,240.142,477.034,234.448,475.875z M371.201,494.933c-13.794-0.525-27.474-2.716-40.742-6.525
				c-3.375-0.814-6.867-1.642-10.431-2.464c1.251-13.269,6.221-25.916,14.339-36.487c8.584-12.374,14.755-26.258,18.189-40.922
				c7.222,5.725,13.479,12.57,18.532,20.277c-0.155,6.274-2.221,12.351-5.921,17.421c-2.188,2.149-3.055,5.307-2.27,8.271
				c0.785,2.965,3.1,5.28,6.065,6.065c2.965,0.785,6.122-0.082,8.271-2.27c3.135-3.286,5.564-7.179,7.136-11.44
				c3.418,3.148,7.797,5.053,12.431,5.406c4.557-0.001,8.309-3.581,8.524-8.133s-3.184-8.47-7.72-8.9
				c-0.704-0.242-5.104-2.116-10.237-12.383c-8.614-13.853-20.028-25.754-33.51-34.938c-1.982-12.188-6.678-23.775-13.74-33.904
				c-6.468-8.691-10.469-18.966-11.583-29.742c0.099-5.152,0.592-10.288,1.475-15.364c7.947,15.739,22.143,27.414,39.12,32.172
				c10.083,2.525,17.725,15.767,19.808,20.642c1.832,4.342,6.837,6.378,11.179,4.546c4.342-1.832,6.378-6.837,4.546-11.179
				c-1.092-2.592-11.279-25.533-31.392-30.558c-28.379-7.1-36.296-44.242-36.375-44.617c-0.054-0.268-0.227-0.47-0.305-0.727
				c2.542-9.567,5.097-18.033,6.752-23.323c4.733-0.2,9.426-0.965,13.977-2.28c0.337-0.1,0.674-0.19,1.009-0.297
				c0.688-0.226,1.365-0.497,2.046-0.763c3.31-1.2,6.393-2.95,9.12-5.177c34.417,55.708,52.904,123.8,52.904,162.258
				C422.401,483.85,390.322,494.933,371.201,494.933z M362.668,221.867c0.073,2.119-0.086,4.24-0.473,6.324
				c-0.225,0.382-0.419,0.78-0.581,1.193c-0.439,1.623-1.29,3.104-2.472,4.299c-0.091,0.086-0.195,0.167-0.29,0.251
				c-0.433,0.381-0.893,0.73-1.377,1.043c-0.263,0.173-0.52,0.347-0.81,0.511c-0.779,0.441-1.592,0.821-2.43,1.136
				c-0.267,0.102-0.585,0.186-0.869,0.282c-0.97,0.321-1.955,0.592-2.953,0.809c-0.318,0.071-0.619,0.147-0.954,0.212
				c-1.42,0.275-3.021,0.5-4.814,0.667c-0.341,0.032-0.711,0.054-1.067,0.082c-1.963,0.152-4.076,0.257-6.511,0.257
				c-1.578,0-3.097-0.078-4.552-0.221c-0.11-0.01-0.206-0.034-0.316-0.045c-1.339-0.143-2.633-0.33-3.856-0.578l-0.287-0.071
				c-1.195-0.252-2.339-0.543-3.409-0.881c-0.203-0.064-0.38-0.143-0.578-0.209c-0.909-0.305-1.784-0.629-2.592-0.986
				c-0.355-0.158-0.666-0.332-1-0.498c-0.569-0.282-1.132-0.563-1.64-0.866c-0.444-0.267-0.837-0.546-1.231-0.826
				c-0.31-0.218-0.627-0.433-0.906-0.658c-0.409-0.334-0.798-0.691-1.166-1.07c-0.164-0.165-0.331-0.329-0.478-0.495
				c-0.33-0.376-0.628-0.777-0.893-1.201c-0.097-0.155-0.194-0.309-0.276-0.463c-0.143-0.26-0.268-0.53-0.373-0.807
				c-0.227-0.656-0.32-1.351-0.275-2.043c0.017-0.32,0.059-0.639,0.126-0.953c0.088-0.384,0.205-0.761,0.35-1.127
				c0.178-0.528,0.401-1.04,0.667-1.529l0.116-0.182c0.824-1.403,1.827-2.692,2.985-3.834l0.004-0.005l0.003-0.004l0.009-0.013
				l0.005-0.006l0.003-0.002c1.346-1.38,2.582-2.862,3.699-4.432c0.195-0.265,0.452-0.497,0.639-0.767
				c0.395-0.563,0.686-1.173,1.049-1.752c0.036-0.055,0.087-0.093,0.121-0.149c0.204-0.331,0.359-0.684,0.554-1.019
				c0.929-1.571,1.758-3.198,2.484-4.872c0.029-0.064,0.08-0.11,0.107-0.175c0.157-0.375,0.26-0.763,0.408-1.14
				c0.592-1.514,1.15-3.032,1.594-4.591c0.026-0.082,0.083-0.144,0.107-0.228l0.017-0.05c0.171-0.612,0.262-1.239,0.409-1.856
				c0.321-1.327,0.645-2.645,0.876-3.986h0.003l-0.001-0.02c0.106-0.617,0.168-1.235,0.256-1.854l0.045-0.134v-0.009l0.004-0.025
				c0.092-0.667,0.179-1.333,0.258-2l0.014-0.131l0.035-0.289c0.117-1.122,0.189-2.228,0.255-3.343
				c0.005-0.063,0.043-0.115,0.046-0.179c0.042-0.65,0.071-1.3,0.096-1.95l0.007-0.327l0.01-0.448l0.018-0.774
				c0.004-0.283,0.018-0.566,0.019-0.848v-0.07l-0.003-0.012c0-0.214-0.016-0.418-0.016-0.631l0.031-0.14
				c0.003-0.095-0.041-0.189-0.043-0.285l-0.01-0.393c-0.011-1.354-0.036-2.66-0.101-3.932c-0.023-0.429-0.048-0.847-0.076-1.272
				c-0.049-0.763-0.075-1.579-0.137-2.302C348.655,182.744,360.84,201.14,362.668,221.867z M371.014,134.067
				c1.347,3.3,1.194,7.022-0.421,10.2c-2.384,4.758-7.532,7.471-12.804,6.75c-13.875-2.835-28.272-1.64-41.49,3.442l-0.039,0.014
				l-0.075,0.027c-1.011,0.531-1.903,1.264-2.62,2.152c-0.078,0.092-0.201,0.128-0.276,0.223c-0.103,0.131-0.112,0.306-0.207,0.442
				c-0.563,0.802-0.981,1.695-1.236,2.641c-0.052,0.194-0.143,0.364-0.182,0.56c-0.207,0.992-0.234,2.013-0.079,3.015l1.483,8.842
				c0.089,0.782,0.16,1.686,0.234,2.569c0.055,0.686,0.107,1.37,0.146,2.083c0.044,0.753,0.074,1.532,0.097,2.329
				c0.036,1.546,0.033,3.123-0.035,4.727c-0.013,0.304-0.024,0.608-0.04,0.914c-0.104,1.957-0.31,3.908-0.616,5.844l-0.057,0.291
				c-0.307,1.801-0.731,3.581-1.269,5.327c-0.051,0.168-0.109,0.333-0.164,0.501c-0.084,0.255-0.181,0.505-0.271,0.758
				c-0.474,1.35-1.044,2.664-1.706,3.933c-0.257,0.489-0.505,0.982-0.791,1.45c-0.871,1.501-1.919,2.892-3.12,4.144l-0.037,0.047
				l-0.134,0.154c-1.112,1.124-2.154,2.314-3.12,3.565l-0.05,0.057l-0.009,0.018l-0.056,0.064c-0.464,0.067-0.931,0.132-1.401,0.196
				c-4.375,0.59-8.949,1.069-13.781,1.392c-0.64,0.043-1.309,0.066-1.957,0.104c-5.163,0.303-10.509,0.494-16.13,0.494
				c-1.795,0-3.704-0.134-5.652-0.332c-0.92-0.095-1.885-0.246-2.838-0.382c-1.031-0.145-2.059-0.287-3.106-0.474
				c-1.174-0.211-2.364-0.459-3.558-0.72c-0.83-0.181-1.658-0.365-2.487-0.567c-1.356-0.331-2.709-0.688-4.059-1.07
				c-0.546-0.155-1.084-0.316-1.623-0.478c-6.396-1.821-12.527-4.47-18.238-7.879c-1.045-1.083-2.165-2.092-3.351-3.019
				c-0.023-0.299-0.028-0.6-0.015-0.9c0.028-0.185,0.132-0.34,0.148-0.53c0.449-3.453,1.386-6.824,2.784-10.013
				c0.081-0.197,0.154-0.385,0.238-0.586c0.718-1.731,1.584-3.578,2.536-5.481c0.232-0.464,0.469-0.932,0.715-1.407
				c1.037-1.999,2.167-4.057,3.436-6.184l0.329-0.542c4.809-7.911,10.295-15.391,16.395-22.356c0.209-0.239,0.424-0.477,0.636-0.716
				c2.132-2.413,4.347-4.802,6.671-7.125l0.011-0.011c2.249-2.233,4.615-4.344,7.087-6.327c0.44-0.354,0.879-0.744,1.319-1.083
				c1.952-1.498,3.978-2.897,6.071-4.192c0.847-0.529,1.695-1.066,2.543-1.547c1.756-1.002,3.518-1.886,5.283-2.695
				c1.083-0.495,2.167-0.959,3.253-1.39c1.673-0.661,3.35-1.27,5.039-1.789c1.069-0.331,2.14-0.614,3.211-0.894
				c1.82-0.469,3.644-0.911,5.492-1.25c0.791-0.148,1.586-0.258,2.379-0.384c2.169-0.337,4.346-0.644,6.564-0.846
				c0.34-0.032,0.683-0.049,1.024-0.079c5.463-0.455,11.081-0.591,16.943-0.61l0.016-0.003c1.508-0.006,3.02-0.008,4.538-0.006
				c12,0.585,23.826,3.107,35.021,7.467C366.96,128.114,369.682,130.718,371.014,134.067z M210.293,64.025
				c1.875-2.175,2.528-5.148,1.738-7.908L203.939,27.8c-0.827-2.901,0.762-5.941,3.616-6.918c2.854-0.977,5.973,0.452,7.097,3.252
				l7.446,18.608c0.841,2.103,2.483,3.785,4.565,4.676c2.082,0.891,4.433,0.918,6.535,0.074c6.181-2.414,12.682-3.911,19.296-4.442
				c4.401-0.394,7.774-4.081,7.775-8.5V25.6c0-4.713,3.82-8.533,8.533-8.533s8.533,3.821,8.533,8.533v12.058
				c0.001,3.8,2.513,7.142,6.163,8.2c21.833,6.308,36.504,22.175,36.504,39.475c-0.071,5.797-0.886,11.561-2.425,17.15l-0.154,0.006
				c-5.75,0.089-11.491,0.482-17.199,1.179c-0.383,0.048-0.767,0.088-1.15,0.14c-2.42,0.333-4.855,0.765-7.299,1.276
				c-0.858,0.177-1.717,0.369-2.574,0.57c-2.211,0.525-4.429,1.118-6.654,1.828c-1.026,0.325-2.05,0.715-3.075,1.082
				c-1.583,0.571-3.168,1.201-4.755,1.887c-1.343,0.577-2.684,1.19-4.025,1.853c-1.819,0.898-3.64,1.884-5.461,2.957
				c-0.534,0.315-1.069,0.538-1.603,0.868c2.421-7.287,6.577-13.73,13.708-13.73c4.713,0,8.533-3.821,8.533-8.533
				c0-4.713-3.821-8.533-8.533-8.533c-25.347,0-33.207,28.471-34.051,47.679c-1.049,1.095-2.095,2.209-3.148,3.368
				c-0.71,0.78-1.406,1.561-2.102,2.352c-1.165,1.327-2.321,2.686-3.47,4.079c-0.782,0.943-1.568,1.876-2.326,2.829
				c-1.542,1.931-3.052,3.904-4.531,5.918c-0.349,0.476-0.683,0.95-1.025,1.427c-7.995,10.47-14.157,22.219-18.223,34.749h-5.262
				c-0.216-0.079-0.468-0.162-0.685-0.241c-1.12-0.406-2.292-0.809-3.439-1.21c-1.535-0.538-2.995-1.06-4.617-1.624
				c-3.421-1.18-7.041-2.431-10.805-3.811l-0.182-0.067v-9.347C183.468,120.85,192.493,84.708,210.293,64.025L210.293,64.025z"/>
			<path style="fill:#428DFF;" d="M111.96,134.891c0.484,0.245,1.002,0.417,1.537,0.508c0.563,0.096,1.133,0.153,1.704,0.171
				c2.259-0.032,4.423-0.915,6.059-2.475c2.07-1.994,2.979-4.908,2.409-7.726c-0.57-2.818-2.539-5.149-5.221-6.183
				c-1.027-0.438-2.13-0.67-3.246-0.683c-3.45,0.014-6.556,2.096-7.879,5.282c-1.323,3.187-0.606,6.856,1.82,9.31l1.279,1.025
				C110.898,134.445,111.415,134.704,111.96,134.891z"/>
		</g>
	</g>
</g>
<g>
</g>
<g>
</g>
<g>
</g>
<g>
</g>
<g>
</g>
<g>
</g>
<g>
</g>
<g>
</g>
<g>
</g>
<g>
</g>
<g>
</g>
<g>
</g>
<g>
</g>
<g>
</g>
<g>
</g>
</svg>
