<svg height="512" viewBox="0 0 60 60" width="512" xmlns="http://www.w3.org/2000/svg"><g id="Page-1" fill="none" fill-rule="evenodd"><g id="019---Plant" fill-rule="nonzero" transform="translate(0 -1)"><path id="Shape" d="m59 45v2h-58v-2c.0032948-1.1032019.89679813-1.9967052 2-2h54c1.1032019.0032948 1.9967052.8967981 2 2z" fill="#e8edfc"/><path id="Shape" d="m57 43h-3c1.1032019.0032948 1.9967052.8967981 2 2v2h3v-2c-.0032948-1.1032019-.8967981-1.9967052-2-2z" fill="#cad9fc"/><path id="Shape" d="m7 39h46c1.1045695 0 2 .8954305 2 2v2h-50v-2c0-1.1045695.8954305-2 2-2z" fill="#a4c2f7"/><path id="Shape" d="m53 39h-3c1.1045695 0 2 .8954305 2 2v2h3v-2c0-1.1045695-.8954305-2-2-2z" fill="#7facfa"/><path id="Shape" d="m22.649 7.314c2.921 4.687.2 11.66.2 11.66s-7.46-.626-10.381-5.314-.2-11.66-.2-11.66 7.46.627 10.381 5.314z" fill="#e8edfc"/><path id="Shape" d="m40.251 9.587c-4.669 2.949-5.251 10.413-5.251 10.413s6.989 2.682 11.659-.266 5.251-10.413 5.251-10.413-6.989-2.683-11.659.266z" fill="#e8edfc"/><path id="Shape" d="m44.233 8.286c1.5948847.15606771 3.1651819.50356773 4.677 1.035 0 0-.582 7.464-5.251 10.413-1.2104921.7312673-2.572223 1.175942-3.981 1.3 2.4065541.3419402 4.8588436-.1147245 6.981-1.3 4.669-2.949 5.251-10.413 5.251-10.413-2.459315-.87455938-5.0738864-1.22705143-7.677-1.035z" fill="#cad9fc"/><path id="Shape" d="m31.01 39c0-.04-.01-.08-.01-.12-.16-2.09-.24-4.2-.24-6.33-.01-1.06.01-2.12.05-3.19.03-1.05.09-2.14.16-3.15l.01-.06c.1089727-1.0613496-.634359-2.0213647-1.6891886-2.181592-1.0548295-.1602273-2.0497053.5357563-2.2608114 1.581592-.27 1.14-.49 2.21-.7 3.31s-.39 2.2-.56 3.31c-.34 2.21-.5966667 4.4466667-.77 6.71.0016438.0402597-.0017152.0805677-.01.12" fill="#e8edfc"/><g fill="#a4c2f7"><path id="Shape" d="m35 57s-5-1-7-3c-1.8152616-1.8926714-2.8813494-4.3802095-3-7h6.6c-.2404985 1.5558133-.1896342 3.1427807.15 4.68.4282373 2.0986846 1.5781669 3.9810309 3.25 5.32z"/><path id="Shape" d="m25 47s0 6-4 8-6-1-9 3c0 0-1-4 4-6s4-5 4-5z"/><path id="Shape" d="m42 53c-3.155549-1.6303292-6.7843506-2.0976481-10.25-1.32-.3396342-1.5372193-.3904985-3.1241867-.15-4.68h4.4s5 1 6 6z"/></g><path id="Shape" d="m22.845 18.974s.076-.2.183-.525c-2.429-.63-5.81-1.975-7.564-4.789-2.447-3.928-.934-9.445-.379-11.135-.924612-.24492405-1.8662337-.42041265-2.817-.525 0 0-2.724 6.973.2 11.66s10.377 5.314 10.377 5.314z" fill="#fff"/><path id="Shape" d="m4 45c.0032948-1.1032019.89679813-1.9967052 2-2h2v-2c0-1.1045695.8954305-2 2-2h-3c-1.1045695 0-2 .8954305-2 2v2h-2c-1.10320187.0032948-1.9967052.8967981-2 2v2h3z" fill="#fff"/><path id="Rectangle-path" d="m7 38h8v2h-8z" fill="#fff"/><path id="Shape" d="m57 42h-1v-1c0-1.6568542-1.3431458-3-3-3h-21.049c-.119-1.8-.191-3.627-.191-5.459-.009-.988.007-2.016.05-3.152.029-1.037.088-2.113.155-3.063.0063616-.0347189.0107022-.0697779.013-.105.052603-.7104639-.1498537-1.416403-.571-1.991 1.0188411-1.2692353 2.2688735-2.3340022 3.684-3.138 1.9780423.6541676 4.0447692 1.0008704 6.128 1.028 2.0968516.0603577 4.1679794-.4738921 5.974-1.541 5.036-3.179 5.689-10.855 5.714-11.179.0343509-.44101783-.2251314-.85220377-.638-1.011-.3-.116-7.513-2.826-12.552.355-4.332 2.736-5.418 8.787-5.654 10.634-1.6646024.9561687-3.130949 2.2219109-4.32 3.729-.029-.008-.056-.022-.086-.029-.2343489-.0516945-.4740888-.0748627-.714-.069-1.1514236-1.958505-2.8335638-3.5511991-4.852-4.594.662-2.146 1.934-7.572-.593-11.628-3.149-5.057-10.82-5.756-11.145-5.787-.441503-.03738732-.8549686.22021478-1.016.633-.118.3-2.871 7.5.279 12.553 3.088 4.958 10.509 5.725 11.1 5.778 1.7680188.8171369 3.2675488 2.1196889 4.324 3.756-.4925294.4126014-.8375413.9741671-.983 1.6-.246 1.035-.465 2.069-.711 3.362-.2 1.109-.394 2.218-.566 3.337-.3 1.971-.528 3.963-.7 5.982h-9.08c-.5522847 0-1 .4477153-1 1s.4477153 1 1 1h38c.5522847 0 1 .4477153 1 1v1h-48v-1.001c0-.5522847.44771525-1 1-1s1-.4477153 1-1-.44771525-1-1-1c-1.65685425 0-3 1.3431458-3 3v1h-1c-1.65685425 0-3 1.3431458-3 3v2c0 .5522847.44771525 1 1 1h18.045c-.142.769-.8 2.027-3.416 3.071-.3163541.1272955-.6260815.2704777-.928.429-1.8074584-1.4167487-4.3087451-1.5494897-6.256-.332-.57720551.4844449-1.31641862.7323975-2.069.694-.20149664-.0417712-.37853421-.1609932-.493-.332-.25322257-.4909811-.85651885-.6837225-1.34749998-.4305-.49098112.2532226-.68372254.8565189-.43050002 1.3475.36802065.6648057.99264383 1.1495394 1.728 1.341.26119605.0679146.53012332.1015305.8.1 1.05706961-.0580691 2.07365774-.4260301 2.923-1.058 1.0100733-.6505305 2.2988616-.6825573 3.34-.083-1.2263189 1.1027801-1.9451993 2.6613187-1.988 4.31-3.849.395-3.908 2.83-3.908 2.943-.00286854.5580682.44206528 1.0154602 1 1.028.26229176.0064536.51613591-.0929682.70427559-.2758399.18813967-.1828718.2947285-.4337908.29572441-.6961601.042-.312.551-.86 2.105-1.014.212 1.042.784 1.958 1.895 1.958.5179782.0009535.9509487-.3937833.9977505-.9096436.0468019-.5158603-.3080583-.9820737-.8177505-1.0743564-.0843398-.2201979-.13752-.4510938-.158-.686 1.311-1.616 2.25-1.609 3.758-1.567.8141356.0446354 1.6307093.002734 2.436-.125.1409243.7829105.5165309 1.5044799 1.077 2.069.3753195.3384778.6245921.794361.707 1.293 0 .5522847.4477153 1 1 1s1-.4477153 1-1c-.0695-1.0343421-.5321283-2.0028919-1.293-2.707-.3394918-.3337034-.5463007-.779302-.582-1.254.108-.049.212-.09.322-.144 1.7241655-.9292981 3.0333232-2.4759973 3.665-4.33.5364573 1.1675072 1.2747842 2.2311584 2.181 3.142 1.635 1.635 4.9 2.629 6.533 3.046-.2398274.5943245-.6941734 1.0768663-1.273 1.352-.4942948.2468713-.6948712.8477051-.448 1.342.2468713.4942948.8477052.6948713 1.342.448 1.2566869-.6070868 2.1621702-1.7609966 2.453-3.126.9035575-.1012012 1.7988897.249748 2.393.938l2 2c.3923789.3789722 1.0160848.3735524 1.4018186-.0121814s.3911536-1.0094397.0121814-1.4018186l-2-2c-1.1260218-1.262691-2.8542899-1.8053673-4.5-1.413-.9988102-.9436744-1.7502098-2.118509-2.188-3.421 2.9013445-.4086459 5.8582685.0798711 8.474 1.4.009 0 .018.007.027.012s.016.013.026.018c.8062679.4172866 1.3515427 1.2089476 1.454 2.111-.1142036 1.0918964.2703718 2.1770302 1.0466708 2.9533292s1.8614328 1.1608744 2.9533292 1.0466708c.5522847 0 1-.4477153 1-1s-.4477153-1-1-1c-1.439 0-2-.561-2-2-.0071262-1.014934-.394233-1.9903719-1.085-2.734 1.2028539-.3360212 2.4924985-.1292397 3.53.566 3.506 2.335 5 1.138 5.262.875.3719339-.3747503.3884399-.9740831.0376958-1.3687363-.3507441-.3946533-.9478698-.4486271-1.3636958-.1232637-.11.035-.91.231-2.826-1.047-1.7512973-1.1716452-3.9719592-1.3914979-5.919-.586-.4889453-1.3978954-1.3494081-2.636215-2.489-3.582h18.853c.5522847 0 1-.4477153 1-1v-2c0-1.6568542-1.3431458-3-3-3zm-16.215-31.567c3.35-2.116 8.2-.974 10.03-.421-.289 1.891-1.34 6.76-4.69 8.876-2.956 1.867-7.078 1.2-9.265.633 2.5976304-2.6391986 5.639325-4.8008124 8.986-6.386.5092065-.2142865.7482865-.8007935.534-1.31s-.8007935-.7482865-1.31-.534c-3.1215702 1.4317469-5.9869882 3.3661237-8.482 5.726.612-2.223 1.83-5.089 4.197-6.584zm-27.472 2.7c-2.1-3.362-.922-8.2-.36-10.032 1.89.3 6.752 1.381 8.848 4.744 1.48 2.376 1.327 5.488.913 7.756-1.2195401-3.2108753-2.9576251-6.19990841-5.145-8.848-.3686642-.39854497-.987981-.43013271-1.3952816-.07116518-.4073005.35896754-.4537814.97734495-.1047184 1.39316518 2.323508 2.8848559 4.121253 6.1560682 5.311 9.664-2.211-.439-6.211-1.629-8.067-4.608zm13.445 19.189c.17-1.1.357-2.192.554-3.275.24-1.254.453-2.261.693-3.272.0598179-.2600874.2211168-.4854738.448-.626.2221878-.1410267.4918728-.186455.748-.126.4709204.1038774.8006254.5290455.784 1.011-.006.035-.01.071-.013.108-.07 1.023-.131 2.126-.161 3.18-.044 1.159-.061 2.218-.051 3.228 0 1.843.072 3.679.189 5.45h-3.861c.163-1.883.379-3.786.67-5.678zm-6.2 21.783c-.2234796.1111687-.4531958.2093323-.688.294l-.014.005c-.9691453.324789-1.9946157.4473145-3.013.36-1.20887-.1429227-2.4328345.079648-3.514.639.4131562-.756839 1.0233819-1.3877972 1.766-1.826l.019-.012c.4006709-.2495445.8230518-.4624084 1.262-.636 3.741-1.5 4.58-3.586 4.692-4.929h2.864c-.192 1.641-.875 4.854-3.379 6.105zm8.154-.812c-1.3986967-1.4506302-2.3115316-3.300414-2.612-5.293h4.4c-.2346887 2.476921.3077554 4.9654533 1.552 7.12-1.2248525-.3817928-2.3617968-1.0027786-3.345-1.827zm11.542-2.129c-2.4752586-.8263616-5.1121624-1.0492179-7.691-.65-.1104456-.833367-.1315654-1.676147-.063-2.514h3.383c1.8040348.4625754 3.3647745 1.5936291 4.366 3.164zm17.746-5.164h-56v-1c0-.5522847.44771525-1 1-1h54c.5522847 0 1 .4477153 1 1z" fill="#428dff"/><path id="Shape" d="m11.02 40c-.5522847.0027614-1.0022386-.4427153-1.005-.995s.4427153-1.0022386.995-1.005h.01c.5522847 0 1 .4477153 1 1s-.4477153 1-1 1z" fill="#428dff"/></g></g></svg>