<?xml version="1.0" encoding="iso-8859-1"?>
<!-- Generator: Adobe Illustrator 19.0.0, SVG Export Plug-In . SVG Version: 6.00 Build 0)  -->
<svg version="1.1" id="Capa_1" xmlns="http://www.w3.org/2000/svg" xmlns:xlink="http://www.w3.org/1999/xlink" x="0px" y="0px"
	 viewBox="0 0 512.101 512.101" style="enable-background:new 0 0 512.101 512.101;" xml:space="preserve">
<g>
	<g transform="translate(2 9)">
		<path style="fill:#A4C2F7;" d="M441.784,459.992v34.475H66.317v-34.475c0.008-20.978,11.021-40.413,29.013-51.2L151.651,375
			l2.731-1.621H353.72l2.731,1.621l56.32,33.792C430.763,419.579,441.776,439.014,441.784,459.992z"/>
		<path style="fill:#E3E7F2;" d="M416.184,459.992v34.475H66.317v-34.475c0.008-20.978,11.021-40.413,29.013-51.2L151.651,375
			l2.731-1.621H328.12l2.731,1.621l56.32,33.792C405.163,419.579,416.176,439.014,416.184,459.992z"/>
		<g>
			<path style="fill:#FFFFFF;" d="M254.051,375l-34.133,34.133l-65.536-35.755l35.755-21.504c1.282-0.728,2.344-1.79,3.072-3.072
				l1.109,0.597L254.051,375z"/>
			<path style="fill:#FFFFFF;" d="M353.72,373.379l-65.536,35.755L254.051,375l59.733-25.6l1.109-0.597
				c0.728,1.283,1.79,2.344,3.072,3.072L353.72,373.379z"/>
		</g>
		<polygon style="fill:#E3E7F2;" points="288.184,494.467 219.917,494.467 245.517,426.2 262.584,426.2 		"/>
		<polygon style="fill:#FFFFFF;" points="245.517,426.2 219.917,494.467 151.651,375 154.381,373.379 219.917,409.133 
			227.256,401.795 		"/>
		<polygon style="fill:#E3E7F2;" points="280.845,401.795 262.584,426.2 245.517,426.2 227.256,401.795 254.051,375 		"/>
		<polygon style="fill:#FFFFFF;" points="356.451,375 288.184,494.467 262.584,426.2 280.845,401.795 288.184,409.133 
			353.72,373.379 		"/>
		<path style="fill:#A4C2F7;" d="M382.051,195.8c0.017,39.352-18.08,76.522-49.067,100.779c-11.945,8.993-19.038,23.022-19.2,37.973
			v9.984c-0.034,1.64,0.443,3.251,1.365,4.608l-0.256,0.256l-1.109,0.597l-59.733,25.6l-12.8-5.461l-46.933-20.139l-1.109-0.597
			l-0.256-0.256c0.922-1.357,1.399-2.968,1.365-4.608v-8.96c-0.213-15.504-7.506-30.058-19.797-39.509
			c-40.862-32.37-57.997-86.297-43.312-136.316s58.252-86.125,110.128-91.268h0.171c2.133-0.256,4.267-0.427,6.485-0.512
			c34.955-1.657,69.065,11.07,94.391,35.219S382.044,160.805,382.051,195.8z"/>
		<path style="fill:#E3E7F2;" d="M356.451,195.8c0.017,39.352-18.08,76.522-49.067,100.779c-11.945,8.993-19.038,23.022-19.2,37.973
			v9.984c-0.034,1.64,0.443,3.251,1.365,4.608l7.168,8.789l-55.467,12.203l-46.933-20.139l-1.109-0.597l-0.256-0.256
			c0.922-1.357,1.399-2.968,1.365-4.608v-8.96c-0.213-15.504-7.506-30.058-19.797-39.509
			c-40.862-32.37-57.997-86.297-43.312-136.316s58.252-86.125,110.128-91.268h0.171C306.787,75.194,356.425,130.175,356.451,195.8z"
			/>
		<path style="fill:#FFFFFF;" d="M91.917,459.992c0.008-20.978,11.021-40.413,29.013-51.2L177.251,375l2.731-1.621l35.755-21.504
			c1.146-0.676,2.113-1.616,2.822-2.742c0.917-1.355,1.392-2.961,1.359-4.596v-8.96c-0.213-15.504-7.506-30.058-19.797-39.509
			c-40.779-32.298-57.935-86.076-43.395-136.023s57.882-86.112,109.625-91.475c-6.097-0.635-12.232-0.835-18.358-0.598
			c-2.218,0.085-4.352,0.256-6.485,0.512h-0.171c-51.876,5.143-95.443,41.249-110.128,91.268s2.449,103.946,43.312,136.316
			c12.291,9.452,19.584,24.006,19.797,39.509v8.96c0.033,1.636-0.442,3.242-1.359,4.596c-0.708,1.126-1.676,2.066-2.822,2.742
			l-35.755,21.504L151.651,375l-56.32,33.792c-17.992,10.787-29.006,30.222-29.013,51.2v34.475h25.6V459.992z"/>
	</g>
	<g>
		<polygon style="fill:#FFFFFF;" points="68.317,494.933 179.251,494.933 443.784,494.933 443.784,512 179.251,512 68.317,512 		"/>
		<g>
			<path style="fill:#428DFF;" d="M162.184,503.467c0.014,4.707,3.826,8.519,8.533,8.533h51.177l0.023,0.004l0.028-0.004h68.212
				l0.028,0.004l0.023-0.004h153.577c4.713,0,8.533-3.82,8.533-8.533v-34.475c-0.094-23.952-12.657-46.125-33.154-58.517
				l-94.846-56.938v-10.004c0.19-12.306,6.058-23.834,15.896-31.229c46.788-36.647,64.498-99.348,43.797-155.058
				c-20.702-55.709-75.06-91.63-134.426-88.83c-56.841,2.694-106.051,40.36-123.494,94.526
				c-17.444,54.165,0.537,113.47,45.124,148.828c10.252,7.81,16.358,19.889,16.571,32.775l-0.042,9.013L92.93,410.479
				c-20.493,12.393-33.053,34.564-33.146,58.513v34.475c0,4.713,3.821,8.533,8.533,8.533h34.133c4.713,0,8.533-3.82,8.533-8.533
				c0-4.713-3.821-8.533-8.533-8.533h-25.6v-25.941c-0.06-17.998,9.399-34.688,24.871-43.883l48.838-29.321l56.654,99.145h-36.496
				C166.01,494.947,162.198,498.76,162.184,503.467z M315.226,367.922c0.127,0.079,0.22,0.194,0.35,0.27l23.01,13.815
				l-46.881,25.577l-20.709-20.706L315.226,367.922z M253.433,443.733h5.236l19.2,51.2h-43.636L253.433,443.733z M274.215,436.574
				l9.564-12.78l0.372,0.372c2.677,2.677,6.797,3.271,10.121,1.458l44.411-24.229l-46.889,82.056L274.215,436.574z M271.585,411.601
				l-11.272,15.066h-8.525l-11.272-15.066l15.534-15.534L271.585,411.601z M221.913,426.667c2.265,0.001,4.437-0.898,6.037-2.5
				l0.372-0.372l9.564,12.78l-17.579,46.878l-46.889-82.056l44.411,24.229C219.083,426.308,220.486,426.666,221.913,426.667z
				 M435.251,468.992l0,25.941H304.888l56.654-99.145l48.83,29.316C425.848,434.299,435.31,450.99,435.251,468.992z M181.83,298.408
				c-30.074-23.649-46.886-60.36-45.146-98.579c2.868-61.677,52.033-111.132,113.692-114.362
				c51.957-2.472,99.541,28.958,117.66,77.716c18.119,48.758,2.607,103.635-38.355,135.692
				c-13.977,10.62-22.257,27.106-22.43,44.658v9.242l-51.2,21.942l-51.2-21.942v-8.229
				C204.655,326.451,196.17,309.446,181.83,298.408z M196.422,368.254c0.163-0.095,0.28-0.239,0.44-0.339l44.244,18.962
				l-20.709,20.706l-46.881-25.577L196.422,368.254z"/>
			<path style="fill:#428DFF;" d="M130.525,497.408l-1.025,1.279c-0.324,0.476-0.583,0.993-0.771,1.538
				c-0.246,0.484-0.417,1.002-0.508,1.537c-0.096,0.564-0.153,1.133-0.17,1.705c0.031,2.259,0.915,4.423,2.475,6.059
				c1.994,2.07,4.908,2.979,7.726,2.409c2.818-0.57,5.149-2.539,6.183-5.222c0.438-1.027,0.67-2.13,0.684-3.246
				c-0.014-3.45-2.096-6.556-5.282-7.879C136.648,494.264,132.979,494.982,130.525,497.408z"/>
			<path style="fill:#428DFF;" d="M256.051,119.467c47.107,0.052,85.281,38.227,85.333,85.333c0,4.713,3.82,8.533,8.533,8.533
				s8.533-3.821,8.533-8.533c-0.065-56.527-45.873-102.335-102.4-102.4c-4.713,0-8.533,3.821-8.533,8.533
				C247.517,115.646,251.338,119.467,256.051,119.467z"/>
			<path style="fill:#428DFF;" d="M256.051,51.2c4.713,0,8.533-3.821,8.533-8.533V8.533c0-4.713-3.82-8.533-8.533-8.533
				s-8.533,3.821-8.533,8.533v34.133C247.517,47.379,251.338,51.2,256.051,51.2z"/>
			<path style="fill:#428DFF;" d="M174.993,72.921c3.048-0.002,5.863-1.629,7.386-4.269s1.522-5.892-0.002-8.531l-17.067-29.558
				c-2.358-4.08-7.575-5.477-11.656-3.121s-5.481,7.573-3.127,11.655l17.067,29.558C169.119,71.297,171.94,72.924,174.993,72.921z"
				/>
			<path style="fill:#428DFF;" d="M81.813,114.058l29.558,17.067c4.082,2.353,9.299,0.954,11.655-3.127
				c2.356-4.081,0.958-9.298-3.121-11.656L90.347,99.275c-4.082-2.353-9.299-0.954-11.655,3.127
				C76.336,106.483,77.734,111.701,81.813,114.058z"/>
			<path style="fill:#428DFF;" d="M59.784,213.333h34.133c4.713,0,8.533-3.821,8.533-8.533c0-4.713-3.821-8.533-8.533-8.533H59.784
				c-4.713,0-8.533,3.821-8.533,8.533C51.251,209.513,55.071,213.333,59.784,213.333z"/>
			<path style="fill:#428DFF;" d="M86.088,311.467c1.495,0.001,2.964-0.393,4.258-1.142l29.558-17.067
				c4.08-2.358,5.477-7.575,3.121-11.656c-2.356-4.081-7.573-5.481-11.655-3.127l-29.558,17.067
				c-3.348,1.931-4.98,5.871-3.978,9.604C78.838,308.879,82.223,311.472,86.088,311.467z"/>
			<path style="fill:#428DFF;" d="M389.072,281.6c-2.355,4.082-0.956,9.301,3.125,11.658l29.558,17.067
				c4.082,2.353,9.299,0.954,11.655-3.127c2.356-4.081,0.958-9.299-3.121-11.656l-29.558-17.067c-1.96-1.134-4.29-1.443-6.478-0.856
				C392.065,278.205,390.201,279.637,389.072,281.6z"/>
			<path style="fill:#428DFF;" d="M409.651,204.8c0,4.713,3.82,8.533,8.533,8.533h34.133c4.713,0,8.533-3.821,8.533-8.533
				c0-4.713-3.821-8.533-8.533-8.533h-34.133C413.471,196.267,409.651,200.087,409.651,204.8z"/>
			<path style="fill:#428DFF;" d="M433.413,102.4c-1.13-1.962-2.994-3.394-5.181-3.98c-2.187-0.586-4.517-0.279-6.477,0.855
				l-29.558,17.067c-4.08,2.358-5.477,7.575-3.121,11.656c2.356,4.081,7.573,5.481,11.655,3.127l29.558-17.067
				C434.369,111.701,435.768,106.482,433.413,102.4z"/>
			<path style="fill:#428DFF;" d="M337.109,72.921c3.052,0.003,5.874-1.623,7.4-4.267l17.067-29.558
				c1.526-2.641,1.527-5.896,0.002-8.537c-1.525-2.642-4.344-4.269-7.394-4.268s-5.868,1.629-7.392,4.272l-17.067,29.558
				c-1.524,2.639-1.525,5.891-0.002,8.531C331.246,71.292,334.061,72.919,337.109,72.921z"/>
		</g>
	</g>
</g>
<g>
</g>
<g>
</g>
<g>
</g>
<g>
</g>
<g>
</g>
<g>
</g>
<g>
</g>
<g>
</g>
<g>
</g>
<g>
</g>
<g>
</g>
<g>
</g>
<g>
</g>
<g>
</g>
<g>
</g>
</svg>
