<svg height="512" viewBox="0 0 60 60" width="512" xmlns="http://www.w3.org/2000/svg"><g id="Page-1" fill="none" fill-rule="evenodd"><g id="018---Poem" fill-rule="nonzero"><path id="Shape" d="m43 47h-36c3.3137085 0 6 2.6862915 6 6s-2.6862915 6-6 6-6-2.6862915-6-6v-46c0-3.3137085 2.6862915-6 6-6s6 2.6862915 6 6-2.6862915 6-6 6h20.7c-6.87 7.71-4.31 14.81-3.29 16.94.833009-1.4135016 1.7688675-2.7638118 2.8-4.04-.7725247 1.7494822-1.355838 3.5765268-1.74 5.45 3.2 2.67 11.19 2.38 15.19-5.38.593133-1.1649042 1.3850124-2.2173593 2.34-3.11z" fill="#e8edfc"/><path id="Shape" d="m40.66 25.97c-.208.4-.432.773-.66 1.137v19.893h3v-24.14c-.9549876.8926407-1.746867 1.9450958-2.34 3.11z" fill="#cad9fc"/><path id="Shape" d="m49 7c.0002655.17377334-.009752.34741014-.03.52-6.9-.22-13.88-2.03-20.31 4.44-.34.35-.67.69-.96 1.04h-20.7c3.3137085 0 5.9999999-2.6862915 5.9999999-6 0-3.31370846-2.6862914-5.99999995-5.9999999-6h36c3.3137085 0 6 2.6862915 6 6z" fill="#e8edfc"/><path id="Shape" d="m43 1h-3c3.3137085 0 6 2.6862915 6 6 0 .123-.011.238-.021.355 1 .068 1.995.133 2.991.165.020248-.17258986.0302655-.34622666.03-.52 0-1.59129894-.632141-3.11742242-1.7573593-4.24264069s-2.6513418-1.75735931-4.2426407-1.75735931z" fill="#cad9fc"/><path id="Shape" d="m49 53c0 3.3137085-2.6862915 6-6 6h-36c3.3137084-.0000001 5.9999998-2.6862916 5.9999998-6s-2.6862914-5.9999999-5.9999998-6h36c3.3137085 0 6 2.6862915 6 6z" fill="#e8edfc"/><path id="Shape" d="m43 47h-3c3.3137084.0000001 5.9999998 2.6862916 5.9999998 6s-2.6862914 5.9999999-5.9999998 6h3c3.3137085 0 6-2.6862915 6-6s-2.6862915-6-6-6z" fill="#cad9fc"/><path id="Shape" d="m27.21 25.9c-.7725247 1.7494822-1.355838 3.5765268-1.74 5.45-.4492335 2.0758637-.7136011 4.1874581-.79 6.31l-4.56 3.34c.7742929-3.9085721 2.226163-7.6516218 4.29-11.06.833009-1.4135016 1.7688675-2.7638118 2.8-4.04z" fill="#e8edfc"/><path id="Shape" d="m59 5.53s-.69 11.02-7.08 13.07c-3.14 1.01-6.43 1.93-8.92 4.26-.9549876.8926407-1.746867 1.9450958-2.34 3.11-4 7.76-11.99 8.05-15.19 5.38.384162-1.8734732.9674753-3.7005178 1.74-5.45-1.0311325 1.2761882-1.966991 2.6264984-2.8 4.04-1.02-2.13-3.58-9.23 3.29-16.94.29-.35.62-.69.96-1.04 6.43-6.47 13.41-4.66 20.31-4.44 3.4636678.28810338 6.9386877-.4013572 10.03-1.99z" fill="#fff"/><path id="Shape" d="m55.86 6.818c-.406 2.967-1.9 10.165-6.94 11.782-3.14 1.01-6.43 1.93-8.92 4.26-.9549876.8926407-1.746867 1.9450958-2.34 3.11-1.6548219 3.5736306-4.9577775 6.1078399-8.838 6.781 3.769.595 8.887-1.056 11.838-6.781.593133-1.1649042 1.3850124-2.2173593 2.34-3.11 2.49-2.33 5.78-3.25 8.92-4.26 6.39-2.05 7.08-13.07 7.08-13.07-.994345.54721039-2.0478073.97933123-3.14 1.288z" fill="#e8edfc"/><path id="Shape" d="m10 59c-3.3137085 0-6-2.6862915-6-6v-46c0-3.3137085 2.6862915-6 6-6h-3c-3.3137085 0-6 2.6862915-6 6v46c0 3.3137085 2.6862915 6 6 6z" fill="#fff"/><path id="Rectangle-path" d="m0 45h2v8h-2z" fill="#fff"/><g fill="#428dff"><path id="Shape" d="m1.02 50c-.55228475.0027614-1.00223858-.4427153-1.005-.995s.44271525-1.0022386.995-1.005h.01c.55228475 0 1 .4477153 1 1s-.44771525 1-1 1z"/><path id="Shape" d="m59.533 4.684c-.3090562-.19475349-.6997154-.20548799-1.019-.028-2.6264337 1.37898603-5.5740998 2.02984119-8.537 1.885-.2416121-3.67682277-3.2922497-6.53682284-6.977-6.541h-36c-3.86416566.00440864-6.99559136 3.13583434-7 7v38c0 .5522847.44771525 1 1 1s1-.4477153 1-1v-38c0-2.76142375 2.23857625-5 5-5s5 2.23857625 5 5-2.23857625 5-5 5c-.55228475 0-1 .4477153-1 1s.44771525 1 1 1h18.592c-5.158 7.01-3.378 13.369-2.306 15.88-1.8309362 3.1540195-3.1769969 6.5655232-3.993 10.12h-10.293c-.55228475 0-1 .4477153-1 1s.44771525 1 1 1h11.117c.1619545.000734.3210258-.0428378.46-.126.0453314-.0189167.0891292-.041317.131-.067l4.564-3.341c.2555786-.1867475.4076502-.4834727.41-.8.0574764-1.5763657.2245464-3.1468234.5-4.7 1.2879527.6077168 2.6969552.9154339 4.121.9.7546733-.0009868 1.5073777-.0770277 2.247-.227 2.9449398-.6245227 5.5659119-2.2900578 7.382-4.691.019-.019.029-.044.047-.064.5995981-.771042 1.1271453-1.5955018 1.576-2.463.142-.277.293-.539.45-.791v20.37h-35.005c-.55228475 0-1 .4477153-1 1s.44771525 1 1 1c2.76142375 0 5 2.2385763 5 5s-2.23857625 5-5 5-5-2.2385763-5-5c0-.5522847-.44771525-1-1-1s-1 .4477153-1 1c.00440864 3.8641657 3.13583434 6.9955914 7 7h36c3.6505268-.0281152 6.6665122-2.8569603 6.9280964-6.4982115.2615841-3.6412511-2.3190747-6.872154-5.9280964-7.4217885v-22.78c2.086-1.791 4.746-2.638 7.512-3.519l.714-.228c6.959-2.234 7.742-13.483 7.774-13.961.0222252-.3653213-.1569001-.71359917-.467-.908zm-47.633 7.316c1.3460529-1.3153928 2.104889-3.11794883 2.104889-5s-.7588361-3.68460721-2.104889-5h31.1c2.5511213.00800817 4.6852005 1.93933476 4.947 4.477-.745-.039-1.5-.09-2.254-.143-2.8022926-.29594944-5.629174-.2717938-8.426.072-.025 0-.047.006-.071.011-3.5295715.5529539-6.7786881 2.2532488-9.245 4.838-.247.249-.482.5-.711.745zm11.8 25.14-1.972 1.443c.6431406-2.1840008 1.4933314-4.3016088 2.539-6.324-.2975557 1.6125473-.4869781 3.2431829-.567 4.881zm24.3 15.86c-.0033061 2.7600532-2.2399468 4.9966939-5 5h-31.1c1.3460529-1.3153928 2.104889-3.1179488 2.104889-5s-.7588361-3.6846072-2.104889-5h31.1c2.7600532.0033061 4.9966939 2.2399468 5 5zm3.613-35.352-.708.227c-2.0395344.5794344-4.0160299 1.3613226-5.9 2.334-.8492275-.032454-1.6613969-.3562625-2.3-.917-.252944-.2525868-.6214274-.3510425-.966646-.25828-.3452186.0927626-.6147254.3626507-.707.708-.0922745.3453494.006702.7136932.259646.96628.4370954.4267654.9516368.7661726 1.516 1-.157.132-.31.27-.462.41-.027.024-.054.047-.079.074-1.0187586.9547989-1.8645751 2.07872-2.5 3.322-.3108633.6030219-.6647799 1.182857-1.059 1.735-1.8171961.0070338-3.6140237-.3827055-5.265-1.142-.4942949-.2468713-1.0951287-.0462949-1.342.448s-.0462949 1.0951287.448 1.342c1.4127017.6764228 2.9336937 1.0982247 4.493 1.246-1.3725053 1.276528-3.0662431 2.155889-4.9 2.544-1.8809403.4356169-3.8563663.1651568-5.551-.76.3523506-1.5420129.8457616-3.0483557 1.474-4.5 7.72-9.527 13.324-11.738 22.936-13.071.354405-.0485224.6559004-.2826541.7906681-.6140073.1347676-.3313533.0822798-.7094567-.1376488-.9915714-.2199285-.2821148-.5737984-.4252695-.9280193-.3754213-9.973 1.384-16.151 3.813-24.274 13.877-.01.011-.018.022-.027.034-.653.81-1.24 1.623-1.785 2.432-1.1561597-4.0990187-.3621479-8.5020405 2.153-11.939.0447228.494255.1256061.9845681.242 1.467.135862.5357162.6802838.859862 1.216.724s.859862-.6802838.724-1.216c-.272532-1.1537036-.3210769-2.3489957-.143-3.521.176-.189.354-.378.542-.568 1.7030371-1.7743231 3.828827-3.08702764 6.178-3.815-.3650695 1.01006981-.5515194 2.0759811-.551 3.15 0 .5522847.4477153 1 1 1s1-.4477153 1-1c-.0141085-1.2981981.3365287-2.57428185 1.012-3.683 1.6669297-.19928175 3.3485593-.24614244 5.024-.14-.3664017.42029075-.6806792.88331282-.936 1.379-.2452001.4948481-.0428363 1.0947761.452 1.34.139086.0693896.292569.1050195.448.104.3814967.0015143.7306171-.2141646.9-.556.4436872-.83890898 1.0822372-1.55907806 1.862-2.1 3.957.272 8.026.521 12.029-1.122-.484 3.035-1.96 9.078-6.178 10.426z"/><path id="Shape" d="m9 37h8c.5522847 0 1-.4477153 1-1s-.4477153-1-1-1h-8c-.55228475 0-1 .4477153-1 1s.44771525 1 1 1z"/><path id="Shape" d="m9 32h10c.5522847 0 1-.4477153 1-1s-.4477153-1-1-1h-10c-.55228475 0-1 .4477153-1 1s.44771525 1 1 1z"/><path id="Shape" d="m9 27h10c.5522847 0 1-.4477153 1-1s-.4477153-1-1-1h-10c-.55228475 0-1 .4477153-1 1s.44771525 1 1 1z"/><path id="Shape" d="m9 22h10c.5522847 0 1-.4477153 1-1s-.4477153-1-1-1h-10c-.55228475 0-1 .4477153-1 1s.44771525 1 1 1z"/></g></g></g></svg>